<?xml version="1.0" encoding="UTF-8"?>
<svg version="1.1" xmlns="http://www.w3.org/2000/svg" width="256" height="256">
<path d="M0 0 C84.48 0 168.96 0 256 0 C256 84.48 256 168.96 256 256 C171.52 256 87.04 256 0 256 C0 171.52 0 87.04 0 0 Z " fill="#FEFDFD" transform="translate(0,0)"/>
<path d="M0 0 C0 0.66 0 1.32 0 2 C0.70511719 2.11214844 1.41023438 2.22429688 2.13671875 2.33984375 C5.27389512 3.06314908 7.90127906 4.19457691 10.8125 5.5625 C11.78832031 6.01753906 12.76414062 6.47257812 13.76953125 6.94140625 C14.50558594 7.29074219 15.24164063 7.64007813 16 8 C16 8.66 16 9.32 16 10 C16.53625 10.2475 17.0725 10.495 17.625 10.75 C23.21973243 13.69459602 26.84509429 16.41824374 30 22 C30 22.66 30 23.32 30 24 C30.66 24 31.32 24 32 24 C35 27.46153846 35 27.46153846 35 30 C35.66 30 36.32 30 37 30 C46 48.32038835 46 48.32038835 46 58 C46.763125 58.268125 47.52625 58.53625 48.3125 58.8125 C50.90881123 59.95970729 52.1250348 60.94646668 54 63 C54.66 63.33 55.32 63.66 56 64 C55.67 60.04 55.34 56.08 55 52 C60.05255964 52.63156995 64.29593201 54.13459373 69 56 C69 56.66 69 57.32 69 58 C70.98567708 58.1953125 72.97135417 58.390625 74.95703125 58.5859375 C77 59 77 59 80 61 C81.65549531 61.38499891 83.3222433 61.72793135 85 62 C85 62.66 85 63.32 85 64 C85.57234375 64.12246094 86.1446875 64.24492188 86.734375 64.37109375 C89.09953191 65.02762868 91.07206797 65.93723512 93.25 67.0625 C93.95640625 67.42472656 94.6628125 67.78695312 95.390625 68.16015625 C96.18726563 68.57587891 96.18726563 68.57587891 97 69 C94.83639411 72.24540884 94.65246005 72.39288565 91.125 73.125 C90.44695312 73.27195312 89.76890625 73.41890625 89.0703125 73.5703125 C88.04550781 73.78300781 88.04550781 73.78300781 87 74 C85.66531942 74.3278973 84.33155862 74.65964645 83 75 C83 75.66 83 76.32 83 77 C78.05 78.65 73.1 80.3 68 82 C68 84.97 68 87.94 68 91 C69.299375 91.020625 70.59875 91.04125 71.9375 91.0625 C77.97367758 91.70140031 81.65236306 95.00157084 86 99 C86.58007812 99.52851563 87.16015625 100.05703125 87.7578125 100.6015625 C89 102 89 102 89 104 C89.66 104 90.32 104 91 104 C98.39294397 112.53031996 99.61808359 122.34464031 99.4375 133.3828125 C98.80441828 138.6170417 96.87730688 142.63265919 94 147 C93.34 147 92.68 147 92 147 C91.731875 147.598125 91.46375 148.19625 91.1875 148.8125 C90.00691239 150.98726664 88.73183488 152.26816512 87 154 C86.67 154.99 86.34 155.98 86 157 C78.29299311 163.1260824 68.84961235 166.13133977 59.13208008 166.20532227 C58.33184921 166.21522186 57.53161835 166.22512146 56.70713806 166.23532104 C54.06129925 166.26691603 51.41544248 166.29168558 48.76953125 166.31640625 C46.93535393 166.3369775 45.10118133 166.35797402 43.26701355 166.37937927 C38.4386884 166.43458223 33.61032058 166.48399937 28.78192139 166.53222656 C23.85522666 166.58245452 18.92859391 166.63813384 14.00195312 166.69335938 C4.33468638 166.80091926 -5.33263298 166.90186535 -15 167 C-18.465 176.9 -18.465 176.9 -22 187 C-22.66 187 -23.32 187 -24 187 C-24.33 188.32 -24.66 189.64 -25 191 C-25.99 191 -26.98 191 -28 191 C-31.97839741 182.82521081 -35.80829335 174.8711936 -38 166 C-38.74765625 165.87882813 -39.4953125 165.75765625 -40.265625 165.6328125 C-41.74289063 165.38144531 -41.74289063 165.38144531 -43.25 165.125 C-44.71179688 164.88136719 -44.71179688 164.88136719 -46.203125 164.6328125 C-48.77264117 164.05144152 -50.72071056 163.29159735 -53 162 C-53 161.34 -53 160.68 -53 160 C-54.65 159.67 -56.3 159.34 -58 159 C-58.66 157.02 -59.32 155.04 -60 153 C-60.66 153 -61.32 153 -62 153 C-62 152.34 -62 151.68 -62 151 C-62.66 151 -63.32 151 -64 151 C-64.0825 150.38125 -64.165 149.7625 -64.25 149.125 C-64.4975 148.42375 -64.745 147.7225 -65 147 C-65.639375 146.71125 -66.27875 146.4225 -66.9375 146.125 C-69 145 -69 145 -70.125 142.625 C-71 139 -71 139 -71.38671875 136.11328125 C-72.25080339 129.66831965 -72.74324276 126.22826126 -78 122 C-80.07068388 119.77003274 -82.06878337 117.48400146 -84.07421875 115.1953125 C-85.2063238 113.90475867 -86.34999154 112.62391655 -87.51953125 111.3671875 C-91.47750033 106.99070205 -94 101.98877722 -94 96 C-94.66 96 -95.32 96 -96 96 C-96.33 92.7 -96.66 89.4 -97 86 C-97.66 86 -98.32 86 -99 86 C-100.0479253 80.85185906 -100.14979065 75.91419576 -100.125 70.6875 C-100.12886719 69.88376953 -100.13273437 69.08003906 -100.13671875 68.25195312 C-100.1178916 56.55087775 -99.1832187 44.65245012 -92 35 C-91.46375 33.906875 -90.9275 32.81375 -90.375 31.6875 C-89 29 -89 29 -87 28 C-85.99353315 26.24679968 -84.98915083 24.492208 -84.01171875 22.72265625 C-82.88985648 20.81245832 -81.75801502 19.35846615 -80 18 C-79.34 18 -78.68 18 -78 18 C-77.773125 17.401875 -77.54625 16.80375 -77.3125 16.1875 C-75.64100363 13.40167272 -73.7943596 12.62462768 -71 11 C-70.27296875 10.21882813 -69.5459375 9.43765625 -68.796875 8.6328125 C-65.5856591 5.60996401 -62.5574845 4.06105254 -58.5625 2.3125 C-57.91990234 2.01794922 -57.27730469 1.72339844 -56.61523438 1.41992188 C-39.21189437 -6.44250077 -18.04144822 -6.01381607 0 0 Z " fill="#E2E6EA" transform="translate(154,59)"/>
<path d="M0 0 C0 0.66 0 1.32 0 2 C0.70511719 2.11214844 1.41023438 2.22429688 2.13671875 2.33984375 C5.27389512 3.06314908 7.90127906 4.19457691 10.8125 5.5625 C11.78832031 6.01753906 12.76414062 6.47257812 13.76953125 6.94140625 C14.50558594 7.29074219 15.24164063 7.64007813 16 8 C16 8.66 16 9.32 16 10 C16.53625 10.2475 17.0725 10.495 17.625 10.75 C23.21973243 13.69459602 26.84509429 16.41824374 30 22 C30 22.66 30 23.32 30 24 C30.66 24 31.32 24 32 24 C35 27.46153846 35 27.46153846 35 30 C35.66 30 36.32 30 37 30 C46 48.32038835 46 48.32038835 46 58 C46.763125 58.268125 47.52625 58.53625 48.3125 58.8125 C50.90881123 59.95970729 52.1250348 60.94646668 54 63 C54.66 63.33 55.32 63.66 56 64 C55.67 60.04 55.34 56.08 55 52 C60.05255964 52.63156995 64.29593201 54.13459373 69 56 C69 56.66 69 57.32 69 58 C70.98567708 58.1953125 72.97135417 58.390625 74.95703125 58.5859375 C77 59 77 59 80 61 C81.65549531 61.38499891 83.3222433 61.72793135 85 62 C85 62.66 85 63.32 85 64 C85.57234375 64.12246094 86.1446875 64.24492188 86.734375 64.37109375 C89.09953191 65.02762868 91.07206797 65.93723512 93.25 67.0625 C93.95640625 67.42472656 94.6628125 67.78695312 95.390625 68.16015625 C96.18726563 68.57587891 96.18726563 68.57587891 97 69 C94.83639411 72.24540884 94.65246005 72.39288565 91.125 73.125 C90.44695312 73.27195312 89.76890625 73.41890625 89.0703125 73.5703125 C88.04550781 73.78300781 88.04550781 73.78300781 87 74 C85.66531942 74.3278973 84.33155862 74.65964645 83 75 C83 75.66 83 76.32 83 77 C78.05 78.65 73.1 80.3 68 82 C67.67 84.97 67.34 87.94 67 91 C64.625 90.8125 64.625 90.8125 62 90 C60.8125 87.6875 60.8125 87.6875 60 85 C58.80930699 82.46977736 57.56317859 80.34476788 56 78 C55.5859375 75.73828125 55.5859375 75.73828125 55.375 73.3125 C55.26285156 72.10013672 55.26285156 72.10013672 55.1484375 70.86328125 C55.09945312 70.24839844 55.05046875 69.63351563 55 69 C54.01 69.495 54.01 69.495 53 70 C52.608125 69.278125 52.21625 68.55625 51.8125 67.8125 C48.61108659 62.84478954 46.02387803 59.98854503 40.1875 58.6875 C38.79482492 58.43986283 37.39968739 58.20431167 36 58 C36 58.66 36 59.32 36 60 C35.34 60 34.68 60 34 60 C34 59.34 34 58.68 34 58 C29.85906302 57.79029441 29.85906302 57.79029441 26 59 C25.01 58.938125 24.02 58.87625 23 58.8125 C15.68593548 58.70561388 8.69125803 62.69685368 3 67 C2.0409375 67.680625 2.0409375 67.680625 1.0625 68.375 C-0.32369301 70.12472785 -0.32369301 70.12472785 0.3125 73.1875 C0.539375 74.115625 0.76625 75.04375 1 76 C-0.485 76.495 -0.485 76.495 -2 77 C-2.33 76.34 -2.66 75.68 -3 75 C-7.69962561 72.65018719 -11.72245155 71.53852535 -17 71 C-17 71.66 -17 72.32 -17 73 C-18.828125 74.3671875 -18.828125 74.3671875 -21.25 75.875 C-25.63405255 78.71295251 -28.94705022 81.14680838 -31.5625 85.75 C-32.036875 86.4925 -32.51125 87.235 -33 88 C-33.99 88 -34.98 88 -36 88 C-37.24204707 89.50353066 -38.48146237 91.00957854 -39.69140625 92.5390625 C-42.45161275 95.62060647 -45.87860026 95.97810824 -49.8125 96.6875 C-54.3701963 97.73395399 -57.04900421 100.33070132 -60.3359375 103.5390625 C-62 105 -62 105 -64 105 C-64.19335938 105.60328125 -64.38671875 106.2065625 -64.5859375 106.828125 C-64.84632812 107.62734375 -65.10671875 108.4265625 -65.375 109.25 C-65.75785156 110.43335938 -65.75785156 110.43335938 -66.1484375 111.640625 C-67 114 -67 114 -68.0625 115.96875 C-69.20155265 118.43669741 -69.41163323 120.54735425 -69.625 123.25 C-69.69976562 124.14203125 -69.77453125 125.0340625 -69.8515625 125.953125 C-69.92503906 126.96632812 -69.92503906 126.96632812 -70 128 C-76.07444546 125.16099602 -79.99381893 119.97729755 -84.296875 114.97265625 C-85.32985228 113.77620321 -86.37810547 112.59241856 -87.453125 111.43359375 C-91.44203419 107.02416703 -94 102.041343 -94 96 C-94.66 96 -95.32 96 -96 96 C-96.33 92.7 -96.66 89.4 -97 86 C-97.66 86 -98.32 86 -99 86 C-100.0479253 80.85185906 -100.14979065 75.91419576 -100.125 70.6875 C-100.12886719 69.88376953 -100.13273437 69.08003906 -100.13671875 68.25195312 C-100.1178916 56.55087775 -99.1832187 44.65245012 -92 35 C-91.46375 33.906875 -90.9275 32.81375 -90.375 31.6875 C-89 29 -89 29 -87 28 C-85.99353315 26.24679968 -84.98915083 24.492208 -84.01171875 22.72265625 C-82.88985648 20.81245832 -81.75801502 19.35846615 -80 18 C-79.34 18 -78.68 18 -78 18 C-77.773125 17.401875 -77.54625 16.80375 -77.3125 16.1875 C-75.64100363 13.40167272 -73.7943596 12.62462768 -71 11 C-70.27296875 10.21882813 -69.5459375 9.43765625 -68.796875 8.6328125 C-65.5856591 5.60996401 -62.5574845 4.06105254 -58.5625 2.3125 C-57.91990234 2.01794922 -57.27730469 1.72339844 -56.61523438 1.41992188 C-39.21189437 -6.44250077 -18.04144822 -6.01381607 0 0 Z " fill="#F8D13D" transform="translate(154,59)"/>
<path d="M0 0 C5.05255964 0.63156995 9.29593201 2.13459373 14 4 C14 4.66 14 5.32 14 6 C16.97851562 6.29296875 16.97851562 6.29296875 19.95703125 6.5859375 C22 7 22 7 25 9 C26.65549531 9.38499891 28.3222433 9.72793135 30 10 C30 10.66 30 11.32 30 12 C30.57234375 12.12246094 31.1446875 12.24492188 31.734375 12.37109375 C34.09953191 13.02762868 36.07206797 13.93723512 38.25 15.0625 C38.95640625 15.42472656 39.6628125 15.78695312 40.390625 16.16015625 C41.18726563 16.57587891 41.18726563 16.57587891 42 17 C39.83639411 20.24540884 39.65246005 20.39288565 36.125 21.125 C35.10792969 21.34542969 35.10792969 21.34542969 34.0703125 21.5703125 C33.04550781 21.78300781 33.04550781 21.78300781 32 22 C30.66531942 22.3278973 29.33155862 22.65964645 28 23 C28 23.66 28 24.32 28 25 C20.575 27.475 20.575 27.475 13 30 C12.67 32.97 12.34 35.94 12 39 C9.625 38.8125 9.625 38.8125 7 38 C5.8125 35.6875 5.8125 35.6875 5 33 C3.80930699 30.46977736 2.56317859 28.34476788 1 26 C0.5859375 23.73828125 0.5859375 23.73828125 0.375 21.3125 C0.26285156 20.10013672 0.26285156 20.10013672 0.1484375 18.86328125 C0.09945312 18.24839844 0.05046875 17.63351563 0 17 C-0.66 17.33 -1.32 17.66 -2 18 C-2.5878125 16.9171875 -2.5878125 16.9171875 -3.1875 15.8125 C-6.38891341 10.84478954 -8.97612197 7.98854503 -14.8125 6.6875 C-16.20517508 6.43986283 -17.60031261 6.20431167 -19 6 C-19 6.66 -19 7.32 -19 8 C-19.66 8 -20.32 8 -21 8 C-21 7.34 -21 6.68 -21 6 C-25.14093698 5.79029441 -25.14093698 5.79029441 -29 7 C-29.99 6.938125 -30.98 6.87625 -32 6.8125 C-39.31406452 6.70561388 -46.30874197 10.69685368 -52 15 C-52.639375 15.45375 -53.27875 15.9075 -53.9375 16.375 C-55.32369301 18.12472785 -55.32369301 18.12472785 -54.6875 21.1875 C-54.460625 22.115625 -54.23375 23.04375 -54 24 C-54.99 24.33 -55.98 24.66 -57 25 C-57.495 24.01 -57.495 24.01 -58 23 C-62.69962561 20.65018719 -66.72245155 19.53852535 -72 19 C-72 19.66 -72 20.32 -72 21 C-73.828125 22.3671875 -73.828125 22.3671875 -76.25 23.875 C-80.63405255 26.71295251 -83.94705022 29.14680838 -86.5625 33.75 C-87.2740625 34.86375 -87.2740625 34.86375 -88 36 C-88.99 36 -89.98 36 -91 36 C-92.17968228 37.50737181 -93.35839038 39.01554288 -94.52734375 40.53125 C-97.00593541 43.00326715 -99.62271863 43.33778797 -103 44 C-102.53464844 43.60425781 -102.06929688 43.20851562 -101.58984375 42.80078125 C-99.6794005 40.63686395 -99.25204547 38.97566211 -98.5625 36.1875 C-96.66212818 29.41311754 -93.31932823 24.63736307 -88 20 C-87.01 20 -86.02 20 -85 20 C-85 19.34 -85 18.68 -85 18 C-80.29538677 16.13867327 -76.1242304 15.7490504 -71.125 15.875 C-70.09246094 15.88853516 -70.09246094 15.88853516 -69.0390625 15.90234375 C-67.35922162 15.92567487 -65.67956254 15.96153674 -64 16 C-63.67 15.34 -63.34 14.68 -63 14 C-62.34 14 -61.68 14 -61 14 C-61 13.34 -61 12.68 -61 12 C-58.65625 10.16015625 -58.65625 10.16015625 -55.5 8.0625 C-54.4790625 7.37285156 -53.458125 6.68320313 -52.40625 5.97265625 C-45.30529615 1.86029192 -39.38348766 0.46847337 -31.1875 0.5625 C-30.31254883 0.56572266 -29.43759766 0.56894531 -28.53613281 0.57226562 C-21.80046625 0.71711867 -16.04497979 1.89432231 -10 5 C-9.67 4.01 -9.34 3.02 -9 2 C-9 3.32 -9 4.64 -9 6 C-7.8553125 6.4021875 -7.8553125 6.4021875 -6.6875 6.8125 C-4.09118877 7.95970729 -2.8749652 8.94646668 -1 11 C-0.01 11.495 -0.01 11.495 1 12 C0.505 6.06 0.505 6.06 0 0 Z " fill="#D3DAE1" transform="translate(209,111)"/>
<path d="M0 0 C0 0.66 0 1.32 0 2 C0.70511719 2.11214844 1.41023438 2.22429688 2.13671875 2.33984375 C5.27389512 3.06314908 7.90127906 4.19457691 10.8125 5.5625 C11.78832031 6.01753906 12.76414062 6.47257812 13.76953125 6.94140625 C14.50558594 7.29074219 15.24164063 7.64007813 16 8 C16 8.66 16 9.32 16 10 C16.53625 10.2475 17.0725 10.495 17.625 10.75 C23.21973243 13.69459602 26.84509429 16.41824374 30 22 C30 22.66 30 23.32 30 24 C30.66 24 31.32 24 32 24 C35 27.46153846 35 27.46153846 35 30 C35.66 30 36.32 30 37 30 C45.47576967 47.48460661 45.47576967 47.48460661 45 57 C44.01 56.67 43.02 56.34 42 56 C40.83203125 52.98046875 40.83203125 52.98046875 39.8125 49.1875 C39.29623047 47.32158203 39.29623047 47.32158203 38.76953125 45.41796875 C38 42 38 42 38 38 C37.34 38 36.68 38 36 38 C33.95830515 35.09451118 33 33.59857954 33 30 C32.34 30 31.68 30 31 30 C28 26.53846154 28 26.53846154 28 24 C27.41605469 23.91621094 26.83210938 23.83242187 26.23046875 23.74609375 C23.35176133 22.7831636 22.24397792 21.37943556 20.3125 19.0625 C19.71050781 18.35222656 19.10851562 17.64195313 18.48828125 16.91015625 C17 15 17 15 16 13 C14.36209288 11.95355934 12.68991979 10.9601817 11 10 C10.24460937 9.50371094 9.48921875 9.00742188 8.7109375 8.49609375 C4.88503475 6.38468056 0.98952141 5.73346583 -3.2578125 4.84375 C-6 4 -6 4 -7.41674805 2.48925781 C-9.37134139 0.65070432 -10.42875389 0.53528373 -13.07421875 0.328125 C-14.26990479 0.23241211 -14.26990479 0.23241211 -15.48974609 0.13476562 C-36.05164226 -1.01924381 -36.05164226 -1.01924381 -55 6 C-56.051875 6.2165625 -56.051875 6.2165625 -57.125 6.4375 C-59.72985642 7.21895692 -60.46327399 8.83461335 -62 11 C-62.66 11 -63.32 11 -64 11 C-64 11.66 -64 12.32 -64 13 C-65.6563464 14.01700264 -67.32541596 15.01331563 -69 16 C-70.76114781 17.50502886 -72.49016634 19.04835421 -74.1875 20.625 C-78.80316344 24.90158172 -78.80316344 24.90158172 -81 26 C-81.268125 26.680625 -81.53625 27.36125 -81.8125 28.0625 C-82.85556765 30.64271997 -83.93815693 32.42488864 -85.5 34.6875 C-87.92131389 38.45398828 -88.82533399 41.80694777 -89.4453125 46.21484375 C-89.93792582 48.68831767 -90.64097809 50.72105492 -91.53125 53.06640625 C-93.45423352 58.69716789 -93.44155239 64.09902126 -93.375 70 C-93.38660156 71.02867187 -93.39820313 72.05734375 -93.41015625 73.1171875 C-93.38516479 79.66494929 -92.39985537 84.93204791 -90 91 C-88.7593044 94.98328589 -88 97.81555814 -88 102 C-87.34 102 -86.68 102 -86 102 C-86 102.99 -86 103.98 -86 105 C-85.34 105 -84.68 105 -84 105 C-83.72027344 105.59167969 -83.44054687 106.18335938 -83.15234375 106.79296875 C-80.21923681 112.57430172 -77.5410737 115.63189638 -72 119 C-72 118.01 -72 117.02 -72 116 C-71.34 116 -70.68 116 -70 116 C-69.9175 115.319375 -69.835 114.63875 -69.75 113.9375 C-68.16237306 107.71929447 -64.78785342 103.17402606 -60 99 C-59.01 98.67 -58.02 98.34 -57 98 C-56.34 97.34 -55.68 96.68 -55 96 C-55 99 -55 99 -56.4609375 100.60546875 C-57.09257813 101.12753906 -57.72421875 101.64960938 -58.375 102.1875 C-59.00148437 102.71730469 -59.62796875 103.24710937 -60.2734375 103.79296875 C-62 105 -62 105 -64 105 C-64.19335938 105.60328125 -64.38671875 106.2065625 -64.5859375 106.828125 C-64.84632812 107.62734375 -65.10671875 108.4265625 -65.375 109.25 C-65.75785156 110.43335938 -65.75785156 110.43335938 -66.1484375 111.640625 C-67 114 -67 114 -68.0625 115.96875 C-69.20155265 118.43669741 -69.41163323 120.54735425 -69.625 123.25 C-69.69976562 124.14203125 -69.77453125 125.0340625 -69.8515625 125.953125 C-69.92503906 126.96632812 -69.92503906 126.96632812 -70 128 C-76.07444546 125.16099602 -79.99381893 119.97729755 -84.296875 114.97265625 C-85.32985228 113.77620321 -86.37810547 112.59241856 -87.453125 111.43359375 C-91.44203419 107.02416703 -94 102.041343 -94 96 C-94.66 96 -95.32 96 -96 96 C-96.33 92.7 -96.66 89.4 -97 86 C-97.66 86 -98.32 86 -99 86 C-100.0479253 80.85185906 -100.14979065 75.91419576 -100.125 70.6875 C-100.12886719 69.88376953 -100.13273437 69.08003906 -100.13671875 68.25195312 C-100.1178916 56.55087775 -99.1832187 44.65245012 -92 35 C-91.46375 33.906875 -90.9275 32.81375 -90.375 31.6875 C-89 29 -89 29 -87 28 C-85.99353315 26.24679968 -84.98915083 24.492208 -84.01171875 22.72265625 C-82.88985648 20.81245832 -81.75801502 19.35846615 -80 18 C-79.34 18 -78.68 18 -78 18 C-77.773125 17.401875 -77.54625 16.80375 -77.3125 16.1875 C-75.64100363 13.40167272 -73.7943596 12.62462768 -71 11 C-70.27296875 10.21882813 -69.5459375 9.43765625 -68.796875 8.6328125 C-65.5856591 5.60996401 -62.5574845 4.06105254 -58.5625 2.3125 C-57.91990234 2.01794922 -57.27730469 1.72339844 -56.61523438 1.41992188 C-39.21189437 -6.44250077 -18.04144822 -6.01381607 0 0 Z " fill="#D7661B" transform="translate(154,59)"/>
<path d="M0 0 C3.39187279 1.41573821 5.09697541 3.04230966 7.25 6 C7.77078125 6.70125 8.2915625 7.4025 8.828125 8.125 C10 10 10 10 10 12 C10.53625 12.2475 11.0725 12.495 11.625 12.75 C14.5823982 14.30652537 17.29724051 16.03435673 20 18 C20 18.66 20 19.32 20 20 C20.639375 20.268125 21.27875 20.53625 21.9375 20.8125 C24 22 24 22 25 25 C19.4590134 27.52958084 13.85659906 29.33846988 8 31 C8 31.66 8 32.32 8 33 C6.845 33.2475 5.69 33.495 4.5 33.75 C0.59810278 34.70471953 -2.6552024 36.22216003 -6.140625 38.1953125 C-8 39 -8 39 -12 39 C-12 39.66 -12 40.32 -12 41 C-13.65 41 -15.3 41 -17 41 C-16.67 38.69 -16.34 36.38 -16 34 C-15.34 34 -14.68 34 -14 34 C-14 33.01 -14 32.02 -14 31 C-13.34 31 -12.68 31 -12 31 C-11.88785156 30.32582031 -11.77570312 29.65164062 -11.66015625 28.95703125 C-10.87079499 25.42125328 -9.68500151 22.08056434 -8.4375 18.6875 C-8.20353516 18.04232422 -7.96957031 17.39714844 -7.72851562 16.73242188 C-7.15552993 15.15378781 -6.57820536 13.57672974 -6 12 C-5.34 12 -4.68 12 -4 12 C-3.8453125 10.9790625 -3.8453125 10.9790625 -3.6875 9.9375 C-2.85274981 6.37084011 -1.50527246 3.33777806 0 0 Z " fill="#F0A728" transform="translate(56,175)"/>
<path d="M0 0 C0 10.56 0 21.12 0 32 C-7.875 32 -7.875 32 -11 31 C-11 30.34 -11 29.68 -11 29 C-11.54785156 28.87625 -12.09570312 28.7525 -12.66015625 28.625 C-16.28355003 27.65714857 -19.74092211 26.26351764 -23.24609375 24.9375 C-25.82688236 24.05893366 -28.31776062 23.46732301 -31 23 C-31 22.34 -31 21.68 -31 21 C-31.99 21 -32.98 21 -34 21 C-34 20.34 -34 19.68 -34 19 C-36.31 18.67 -38.62 18.34 -41 18 C-40.67 16.68 -40.34 15.36 -40 14 C-37.36 13.67 -34.72 13.34 -32 13 C-32 12.34 -32 11.68 -32 11 C-31.175 10.731875 -30.35 10.46375 -29.5 10.1875 C-22.2990015 7.8608983 -22.2990015 7.8608983 -15.5625 4.5 C-10.66237993 1.63163703 -5.67417014 0 0 0 Z " fill="#F5B82C" transform="translate(44,112)"/>
<path d="M0 0 C0.20140476 3.62528568 -0.14223235 5.86501708 -2 9 C-2.66 9 -3.32 9 -4 9 C-4.0825 10.010625 -4.165 11.02125 -4.25 12.0625 C-4.74214756 15.53525955 -6.01293936 17.97011723 -7.87890625 20.95703125 C-10.13149764 25.06192776 -11.49659013 29.57773587 -13 34 C-13.66 34 -14.32 34 -15 34 C-15.33 36.31 -15.66 38.62 -16 41 C-17.8125 40.875 -17.8125 40.875 -20 40 C-20.4125 39.13375 -20.825 38.2675 -21.25 37.375 C-23.2873035 33.44591467 -25.64982986 31.45436882 -29.01171875 28.6640625 C-31.49255173 26.58776613 -33.71360872 24.28639128 -36 22 C-37.64864545 20.64444707 -39.31003995 19.30368347 -41 18 C-40 15 -40 15 -37.9609375 13.6484375 C-32.89623395 11.15433877 -28.65368867 9.36871883 -23 9 C-23 8.34 -23 7.68 -23 7 C-22.38511719 6.86722656 -21.77023438 6.73445313 -21.13671875 6.59765625 C-20.32847656 6.42105469 -19.52023438 6.24445312 -18.6875 6.0625 C-17.88699219 5.88847656 -17.08648437 5.71445312 -16.26171875 5.53515625 C-13.854599 5.00113841 -13.854599 5.00113841 -11 4 C-11 3.34 -11 2.68 -11 2 C-9.5422647 1.664061 -8.08378894 1.33133376 -6.625 1 C-5.81289062 0.814375 -5.00078125 0.62875 -4.1640625 0.4375 C-2 0 -2 0 0 0 Z " fill="#F7CC2B" transform="translate(215,41)"/>
<path d="M0 0 C0.33773437 1.03640625 0.67546875 2.0728125 1.0234375 3.140625 C1.47379737 4.5104696 1.92432714 5.88025834 2.375 7.25 C2.59671875 7.93191406 2.8184375 8.61382812 3.046875 9.31640625 C3.95319447 12.0620211 4.85529087 14.71446655 6.1640625 17.296875 C7 19 7 19 7 22 C7.66 22 8.32 22 9 22 C9.66 24.64 10.32 27.28 11 30 C11.66 30 12.32 30 13 30 C13.99 35.445 13.99 35.445 15 41 C4.11 41 -6.78 41 -18 41 C-17.10839657 34.75877598 -16.92580887 33.70549796 -14 29 C-12.96819186 26.26949195 -12.1402014 23.48568088 -11.3125 20.6875 C-11.08755859 19.94693359 -10.86261719 19.20636719 -10.63085938 18.44335938 C-10.08122049 16.63072049 -9.5397733 14.81560111 -9 13 C-8.34 13 -7.68 13 -7 13 C-7 11.68 -7 10.36 -7 9 C-6.34 9 -5.68 9 -5 9 C-4.87625 7.700625 -4.7525 6.40125 -4.625 5.0625 C-4.4140625 2.84765625 -4.4140625 2.84765625 -4 1 C-2 0 -2 0 0 0 Z " fill="#F6DD31" transform="translate(129,4)"/>
<path d="M0 0 C3.46941546 0.45822468 6.67395049 0.89131683 10 2 C10 2.66 10 3.32 10 4 C10.70125 4.12375 11.4025 4.2475 12.125 4.375 C15.17656387 5.03838345 18.05340938 5.97211955 21 7 C21 7.66 21 8.32 21 9 C22.794375 9.1546875 22.794375 9.1546875 24.625 9.3125 C28.59574619 9.80185252 31.47031682 11.08169392 35 13 C36.98867713 13.69971973 38.98608051 14.37664397 41 15 C40.67 16.32 40.34 17.64 40 19 C38.68 19.33 37.36 19.66 36 20 C36 20.66 36 21.32 36 22 C34.35 22.33 32.7 22.66 31 23 C30.67 23.99 30.34 24.98 30 26 C29.34 26 28.68 26 28 26 C28 26.66 28 27.32 28 28 C27.34 28 26.68 28 26 28 C25.731875 28.598125 25.46375 29.19625 25.1875 29.8125 C24 32 24 32 22.5 33.4375 C20.60096688 35.4156595 19.90100969 37.43558782 19 40 C17.68 40 16.36 40 15 40 C14.49440092 38.56445975 13.9957251 37.1264798 13.5 35.6875 C13.2215625 34.88699219 12.943125 34.08648437 12.65625 33.26171875 C12 31 12 31 12 28 C11.34 28 10.68 28 10 28 C10 27.34 10 26.68 10 26 C9.34 26 8.68 26 8 26 C7.87882812 25.38511719 7.75765625 24.77023438 7.6328125 24.13671875 C7.46523438 23.32847656 7.29765625 22.52023438 7.125 21.6875 C6.96257813 20.88699219 6.80015625 20.08648437 6.6328125 19.26171875 C6.05521001 16.74698882 6.05521001 16.74698882 4 14 C4 12.68 4 11.36 4 10 C3.34 10 2.68 10 2 10 C1.34 6.7 0.68 3.4 0 0 Z " fill="#F7CD2B" transform="translate(40,41)"/>
<path d="M0 0 C5.05255964 0.63156995 9.29593201 2.13459373 14 4 C14 4.66 14 5.32 14 6 C15.98567708 6.1953125 17.97135417 6.390625 19.95703125 6.5859375 C22 7 22 7 25 9 C26.65549531 9.38499891 28.3222433 9.72793135 30 10 C30 10.66 30 11.32 30 12 C30.57234375 12.12246094 31.1446875 12.24492188 31.734375 12.37109375 C34.09953191 13.02762868 36.07206797 13.93723512 38.25 15.0625 C38.95640625 15.42472656 39.6628125 15.78695312 40.390625 16.16015625 C40.92171875 16.43730469 41.4528125 16.71445313 42 17 C39.83639411 20.24540884 39.65246005 20.39288565 36.125 21.125 C35.10792969 21.34542969 35.10792969 21.34542969 34.0703125 21.5703125 C33.38710937 21.71210938 32.70390625 21.85390625 32 22 C30.66531942 22.3278973 29.33155862 22.65964645 28 23 C28 23.66 28 24.32 28 25 C25.56427941 25.83887056 23.12666783 26.67126529 20.6875 27.5 C19.99720703 27.73847656 19.30691406 27.97695312 18.59570312 28.22265625 C15.61068511 29.23208263 13.17341086 30 10 30 C9.608125 28.824375 9.21625 27.64875 8.8125 26.4375 C7.68262794 23.34121598 6.4065293 21.09675137 4.3125 18.5625 C1.2432802 14.59273067 1.50707224 10.83069203 2 6 C1.34 6 0.68 6 0 6 C0 4.02 0 2.04 0 0 Z " fill="#F6B827" transform="translate(209,111)"/>
<path d="M0 0 C0 0.66 0 1.32 0 2 C0.70511719 2.11214844 1.41023438 2.22429688 2.13671875 2.33984375 C5.27389512 3.06314908 7.90127906 4.19457691 10.8125 5.5625 C11.78832031 6.01753906 12.76414062 6.47257812 13.76953125 6.94140625 C14.50558594 7.29074219 15.24164063 7.64007813 16 8 C16 8.66 16 9.32 16 10 C16.53625 10.2475 17.0725 10.495 17.625 10.75 C23.21973243 13.69459602 26.84509429 16.41824374 30 22 C30 22.66 30 23.32 30 24 C30.66 24 31.32 24 32 24 C35 27.46153846 35 27.46153846 35 30 C35.66 30 36.32 30 37 30 C45.47576967 47.48460661 45.47576967 47.48460661 45 57 C44.01 56.67 43.02 56.34 42 56 C40.83203125 52.98046875 40.83203125 52.98046875 39.8125 49.1875 C39.29623047 47.32158203 39.29623047 47.32158203 38.76953125 45.41796875 C38 42 38 42 38 38 C37.34 38 36.68 38 36 38 C33.95830515 35.09451118 33 33.59857954 33 30 C32.34 30 31.68 30 31 30 C28 26.53846154 28 26.53846154 28 24 C27.41605469 23.91621094 26.83210938 23.83242187 26.23046875 23.74609375 C23.35176133 22.7831636 22.24397792 21.37943556 20.3125 19.0625 C19.71050781 18.35222656 19.10851562 17.64195313 18.48828125 16.91015625 C17 15 17 15 16 13 C14.36209288 11.95355934 12.68991979 10.9601817 11 10 C10.24460937 9.50371094 9.48921875 9.00742188 8.7109375 8.49609375 C4.88503475 6.38468056 0.98952141 5.73346583 -3.2578125 4.84375 C-6 4 -6 4 -7.41674805 2.48925781 C-9.37134139 0.65070432 -10.42875389 0.53528373 -13.07421875 0.328125 C-14.26990479 0.23241211 -14.26990479 0.23241211 -15.48974609 0.13476562 C-36.05164226 -1.01924381 -36.05164226 -1.01924381 -55 6 C-55.70125 6.144375 -56.4025 6.28875 -57.125 6.4375 C-59.72985642 7.21895692 -60.46327399 8.83461335 -62 11 C-62.66 11 -63.32 11 -64 11 C-64 11.66 -64 12.32 -64 13 C-65.6563464 14.01700264 -67.32541596 15.01331563 -69 16 C-70.76114781 17.50502886 -72.49016634 19.04835421 -74.1875 20.625 C-78.80316344 24.90158172 -78.80316344 24.90158172 -81 26 C-81.433125 27.0828125 -81.433125 27.0828125 -81.875 28.1875 C-83.18358437 31.45896092 -84.98904936 34.11763742 -87 37 C-87.80867674 34.66266335 -88.12401827 33.38955431 -87.36328125 31 C-85.27447065 27.02427127 -83.24700819 24.14226599 -80 21 C-79.319375 19.515 -79.319375 19.515 -78.625 18 C-76.63595716 14.32792092 -74.51695959 13.18051495 -71 11 C-70.26394531 10.21109375 -69.52789062 9.4221875 -68.76953125 8.609375 C-65.57257482 5.59729193 -62.54225715 4.05438772 -58.5625 2.3125 C-57.59860352 1.87067383 -57.59860352 1.87067383 -56.61523438 1.41992188 C-39.21189437 -6.44250077 -18.04144822 -6.01381607 0 0 Z " fill="#DF963D" transform="translate(154,59)"/>
<path d="M0 0 C7.59 0 15.18 0 23 0 C21.6489016 5.40439361 20.26921586 10.31583028 18.375 15.5 C17.92898437 16.7271875 17.48296875 17.954375 17.0234375 19.21875 C16.68570313 20.1365625 16.34796875 21.054375 16 22 C15.34 22 14.68 22 14 22 C13.67 23.32 13.34 24.64 13 26 C12.01 26 11.02 26 10 26 C0 4.95890411 0 4.95890411 0 0 Z " fill="#EFA830" transform="translate(116,224)"/>
<path d="M0 0 C0.87495117 0.00322266 1.74990234 0.00644531 2.65136719 0.00976562 C9.38703375 0.15461867 15.14252021 1.33182231 21.1875 4.4375 C21.5175 3.4475 21.8475 2.4575 22.1875 1.4375 C22.1875 2.7575 22.1875 4.0775 22.1875 5.4375 C21.07632813 5.27765625 19.96515625 5.1178125 18.8203125 4.953125 C13.89773413 4.34186692 9.01869171 4.21722229 4.0625 4.1875 C3.19496094 4.166875 2.32742187 4.14625 1.43359375 4.125 C-3.83694216 4.0929115 -7.16258375 4.72217001 -11.8125 7.4375 C-13.90234375 7.95703125 -13.90234375 7.95703125 -15.75 8.25 C-20.37443775 9.30828479 -23.80111839 11.7889275 -26.8125 15.4375 C-27.53091649 17.545751 -27.53091649 17.545751 -27.8125 19.4375 C-28.8025 19.1075 -29.7925 18.7775 -30.8125 18.4375 C-33.55115287 18.36698886 -36.26277588 18.34392235 -39 18.375 C-39.74958984 18.37951172 -40.49917969 18.38402344 -41.27148438 18.38867188 C-43.11852383 18.40043646 -44.96552213 18.41837135 -46.8125 18.4375 C-47.1425 19.4275 -47.4725 20.4175 -47.8125 21.4375 C-49.47836346 22.1061712 -51.14518356 22.77246006 -52.8125 23.4375 C-59.15991764 28.55730613 -63.89281232 33.16031085 -64.8125 41.4375 C-67.1225 42.0975 -69.4325 42.7575 -71.8125 43.4375 C-71.34714844 43.04175781 -70.88179688 42.64601562 -70.40234375 42.23828125 C-68.4919005 40.07436395 -68.06454547 38.41316211 -67.375 35.625 C-65.47462818 28.85061754 -62.13182823 24.07486307 -56.8125 19.4375 C-55.8225 19.4375 -54.8325 19.4375 -53.8125 19.4375 C-53.8125 18.7775 -53.8125 18.1175 -53.8125 17.4375 C-49.10788677 15.57617327 -44.9367304 15.1865504 -39.9375 15.3125 C-38.90496094 15.32603516 -38.90496094 15.32603516 -37.8515625 15.33984375 C-36.17172162 15.36317487 -34.49206254 15.39903674 -32.8125 15.4375 C-32.4825 14.7775 -32.1525 14.1175 -31.8125 13.4375 C-31.1525 13.4375 -30.4925 13.4375 -29.8125 13.4375 C-29.8125 12.7775 -29.8125 12.1175 -29.8125 11.4375 C-27.46875 9.59765625 -27.46875 9.59765625 -24.3125 7.5 C-23.2915625 6.81035156 -22.270625 6.12070313 -21.21875 5.41015625 C-14.11779615 1.29779192 -8.19598766 -0.09402663 0 0 Z " fill="#BCC1B7" transform="translate(177.8125,111.5625)"/>
<path d="M0 0 C0 0.66 0 1.32 0 2 C0.5775 2.2475 1.155 2.495 1.75 2.75 C4.32939979 4.18299988 6.06121592 5.78424676 8 8 C8 8.66 8 9.32 8 10 C8.66 10 9.32 10 10 10 C12.1875 12.8125 12.1875 12.8125 14 16 C13.505 17.485 13.505 17.485 13 19 C12.505 17.515 12.505 17.515 12 16 C11.34 16 10.68 16 10 16 C8.44921875 14.390625 8.44921875 14.390625 6.6875 12.25 C4.01237765 9.08238651 1.26074314 6.56907035 -2 4 C-2 3.34 -2 2.68 -2 2 C-3.66645256 1.33279832 -5.33317866 0.66627986 -7 0 C-8.02996094 -0.41378906 -9.05992187 -0.82757813 -10.12109375 -1.25390625 C-11.21550781 -1.68574219 -12.30992187 -2.11757812 -13.4375 -2.5625 C-14.52933594 -2.99691406 -15.62117188 -3.43132812 -16.74609375 -3.87890625 C-30.23526768 -8.52643677 -48.06621031 -7.44543607 -60.9765625 -1.66796875 C-64.14702438 0.08111035 -66.73237326 2.04478554 -69.5 4.375 C-70.44488281 5.16519531 -71.38976562 5.95539063 -72.36328125 6.76953125 C-73.23339844 7.50558594 -74.10351562 8.24164063 -75 9 C-76.22842281 10.02172834 -77.45740891 11.04278078 -78.6875 12.0625 C-79.450625 12.701875 -80.21375 13.34125 -81 14 C-81 12.68 -81 11.36 -81 10 C-79.68212715 8.97971135 -78.34789347 7.98028616 -77 7 C-76.88140625 6.37609375 -76.7628125 5.7521875 -76.640625 5.109375 C-75.74592873 2.16342388 -74.23776931 1.40287504 -71.6875 -0.25 C-70.90761719 -0.77078125 -70.12773438 -1.2915625 -69.32421875 -1.828125 C-67 -3 -67 -3 -63 -3 C-63 -3.66 -63 -4.32 -63 -5 C-58.50499517 -7.49567142 -54.21766084 -8.81606767 -49.1875 -9.6875 C-48.47464844 -9.8127002 -47.76179688 -9.93790039 -47.02734375 -10.06689453 C-29.56715984 -12.99418358 -15.14934768 -8.48121725 0 0 Z " fill="#FCE962" transform="translate(163,75)"/>
<path d="M0 0 C2.97 0.495 2.97 0.495 6 1 C6 1.66 6 2.32 6 3 C6.70511719 3.11214844 7.41023437 3.22429688 8.13671875 3.33984375 C11.27389512 4.06314908 13.90127906 5.19457691 16.8125 6.5625 C17.78832031 7.01753906 18.76414063 7.47257812 19.76953125 7.94140625 C20.50558594 8.29074219 21.24164063 8.64007813 22 9 C22 9.66 22 10.32 22 11 C22.53625 11.2475 23.0725 11.495 23.625 11.75 C29.21973243 14.69459602 32.84509429 17.41824374 36 23 C36 23.66 36 24.32 36 25 C36.66 25 37.32 25 38 25 C41 28.46153846 41 28.46153846 41 31 C41.66 31 42.32 31 43 31 C51.47576967 48.48460661 51.47576967 48.48460661 51 58 C50.01 57.67 49.02 57.34 48 57 C46.83203125 53.98046875 46.83203125 53.98046875 45.8125 50.1875 C45.46832031 48.94355469 45.12414062 47.69960937 44.76953125 46.41796875 C44 43 44 43 44 39 C43.34 39 42.68 39 42 39 C39.95830515 36.09451118 39 34.59857954 39 31 C38.34 31 37.68 31 37 31 C34 27.53846154 34 27.53846154 34 25 C33.41605469 24.91621094 32.83210938 24.83242187 32.23046875 24.74609375 C29.35176133 23.7831636 28.24397792 22.37943556 26.3125 20.0625 C25.71050781 19.35222656 25.10851562 18.64195313 24.48828125 17.91015625 C23 16 23 16 22 14 C19.36035768 12.29255569 16.62561282 10.78908426 13.88671875 9.24609375 C12.83097656 8.64925781 11.77523437 8.05242187 10.6875 7.4375 C9.61886719 6.83808594 8.55023438 6.23867187 7.44921875 5.62109375 C6.64097656 5.08613281 5.83273438 4.55117188 5 4 C5 3.34 5 2.68 5 2 C3.35 2 1.7 2 0 2 C0 1.34 0 0.68 0 0 Z " fill="#D9853C" transform="translate(148,58)"/>
<path d="M0 0 C1.32273745 4.1794829 0.21212369 6.83332482 -1 11 C-0.67 11.99 -0.34 12.98 0 14 C0.99580078 13.49339844 0.99580078 13.49339844 2.01171875 12.9765625 C5.73475145 11.75988515 8.98362138 12.00860013 12.8125 12.375 C13.85180664 12.46007812 13.85180664 12.46007812 14.91210938 12.546875 C16.60898446 12.68730604 18.30465248 12.84219407 20 13 C20 11.35 20 9.7 20 8 C26 15.71428571 26 15.71428571 26 20 C15.11 20 4.22 20 -7 20 C-5.95035461 12.65248227 -5.95035461 12.65248227 -3 8 C-1.90758727 5.3604145 -0.95846173 2.69282106 0 0 Z " fill="#EEB125" transform="translate(118,25)"/>
<path d="M0 0 C0.33 0.99 0.66 1.98 1 3 C-0.0828125 3.86625 -0.0828125 3.86625 -1.1875 4.75 C-4.69176986 8.21467359 -6.0564021 12.56929914 -7.80859375 17.08984375 C-8.76924878 19.43636178 -9.7419705 21.33929174 -11.125 23.4375 C-15.96522384 31.72097251 -16.28596466 41.34703319 -16.375 50.6875 C-16.38885742 51.55391113 -16.40271484 52.42032227 -16.41699219 53.31298828 C-16.37677641 58.8913394 -15.45664729 63.60548401 -13.64306641 68.88208008 C-13 71 -13 71 -13 74 C-13.66 73.67 -14.32 73.34 -15 73 C-15 74.65 -15 76.3 -15 78 C-15.33 78 -15.66 78 -16 78 C-16.33 74.7 -16.66 71.4 -17 68 C-17.66 68 -18.32 68 -19 68 C-20.0479253 62.85185906 -20.14979065 57.91419576 -20.125 52.6875 C-20.12886719 51.88376953 -20.13273437 51.08003906 -20.13671875 50.25195312 C-20.1178916 38.55087775 -19.1832187 26.65245012 -12 17 C-11.46375 15.906875 -10.9275 14.81375 -10.375 13.6875 C-9 11 -9 11 -7 10 C-5.99417137 8.24791141 -4.99076428 6.4941562 -4.01953125 4.72265625 C-2.90640891 2.84186334 -1.6650789 1.41531706 0 0 Z " fill="#D97C36" transform="translate(74,77)"/>
<path d="M0 0 C0 0.66 0 1.32 0 2 C0.66 2 1.32 2 2 2 C2.33 2.99 2.66 3.98 3 5 C4.32848691 6.00642948 5.66150329 7.00692179 7 8 C7 8.66 7 9.32 7 10 C7.66 10 8.32 10 9 10 C9 10.66 9 11.32 9 12 C9.99 12 10.98 12 12 12 C12.33 13.65 12.66 15.3 13 17 C13.99 17.33 14.98 17.66 16 18 C17.32 16.68 18.64 15.36 20 14 C19.67 15.98 19.34 17.96 19 20 C18.34 20 17.68 20 17 20 C16.67 22.31 16.34 24.62 16 27 C14.1875 26.875 14.1875 26.875 12 26 C11.5875 25.13375 11.175 24.2675 10.75 23.375 C8.7126965 19.44591467 6.35017014 17.45436882 2.98828125 14.6640625 C0.50744827 12.58776613 -1.71360872 10.28639128 -4 8 C-5.64864545 6.64444707 -7.31003995 5.30368347 -9 4 C-8.67 3.01 -8.34 2.02 -8 1 C-5.17884816 -0.07009208 -3.09455459 0 0 0 Z " fill="#DF8023" transform="translate(183,55)"/>
<path d="M0 0 C52.48358334 -0.19629599 52.48358334 -0.19629599 72.83203125 0.7734375 C85.59538771 1.37860691 98.27493081 1.16248593 111 0 C107.35586243 2.42942505 104.89235627 3.1253164 100.61506653 3.12025452 C99.27103004 3.12231651 99.27103004 3.12231651 97.89984131 3.12442017 C96.91944885 3.12082489 95.9390564 3.11722961 94.92895508 3.11352539 C93.89463852 3.11367142 92.86032196 3.11381744 91.79466248 3.1139679 C88.36959754 3.1132702 84.94458671 3.10548446 81.51953125 3.09765625 C79.14727305 3.09579156 76.77501446 3.0943679 74.40275574 3.09336853 C68.15397074 3.08954736 61.90520893 3.07972045 55.65643311 3.06866455 C49.2820263 3.05844186 42.90761576 3.05386907 36.53320312 3.04882812 C24.02212552 3.03809786 11.51106399 3.02121797 -1 3 C-0.67 2.01 -0.34 1.02 0 0 Z " fill="#B3BDC7" transform="translate(116,222)"/>
<path d="M0 0 C0.66 0 1.32 0 2 0 C2 10.56 2 21.12 2 32 C-3 32 -3 32 -6 30 C-6 29.34 -6 28.68 -6 28 C-6.99 28 -7.98 28 -9 28 C-9 27.34 -9 26.68 -9 26 C-9.99 25.67 -10.98 25.34 -12 25 C-9.69 25 -7.38 25 -5 25 C-4.05711817 20.0399662 -3.69751789 15.15485426 -3.4375 10.125 C-3.39431641 9.34125 -3.35113281 8.5575 -3.30664062 7.75 C-3.20146649 5.83349351 -3.10032075 3.91676667 -3 2 C-2.01 2 -1.02 2 0 2 C0 1.34 0 0.68 0 0 Z " fill="#DF863F" transform="translate(42,112)"/>
<path d="M0 0 C2.97 0.33 5.94 0.66 9 1 C7.8125 3.4375 7.8125 3.4375 6 6 C3.3125 6.8125 3.3125 6.8125 1 7 C0.67 7.99 0.34 8.98 0 10 C-0.66 10 -1.32 10 -2 10 C-2 10.66 -2 11.32 -2 12 C-2.66 12 -3.32 12 -4 12 C-4.268125 12.598125 -4.53625 13.19625 -4.8125 13.8125 C-6 16 -6 16 -7.5 17.4375 C-9.39903312 19.4156595 -10.09899031 21.43558782 -11 24 C-12.32 24 -13.64 24 -15 24 C-15.50559908 22.56445975 -16.0042749 21.1264798 -16.5 19.6875 C-16.91765625 18.48673828 -16.91765625 18.48673828 -17.34375 17.26171875 C-18 15 -18 15 -18 12 C-17.01 12 -16.02 12 -15 12 C-14.67 12.99 -14.34 13.98 -14 15 C-13.34 15 -12.68 15 -12 15 C-11.773125 14.2575 -11.54625 13.515 -11.3125 12.75 C-9.43038446 8.80651982 -6.71469388 6.76208617 -2.75 5 C-2.1725 4.67 -1.595 4.34 -1 4 C-0.67 2.68 -0.34 1.36 0 0 Z " fill="#E5902A" transform="translate(70,57)"/>
<path d="M0 0 C3.44620861 1.1487362 4.09169196 2.07581642 6.1875 4.9375 C6.71730469 5.64777344 7.24710938 6.35804688 7.79296875 7.08984375 C9 9 9 9 9 11 C9.53625 11.2475 10.0725 11.495 10.625 11.75 C13.5823982 13.30652537 16.29724051 15.03435673 19 17 C19 17.66 19 18.32 19 19 C19.639375 19.268125 20.27875 19.53625 20.9375 19.8125 C23 21 23 21 24 24 C15.57142857 26.28571429 15.57142857 26.28571429 11 26 C11.99 23.69 12.98 21.38 14 19 C13.443125 18.95875 12.88625 18.9175 12.3125 18.875 C8.82706704 17.55618753 7.27258651 14.8706356 5 12 C4.34 11.67 3.68 11.34 3 11 C1.04489419 8.1064434 -0.51852319 5.49070688 -1 2 C-0.67 1.34 -0.34 0.68 0 0 Z " fill="#DC7828" transform="translate(57,176)"/>
<path d="M0 0 C0 0.99 0 1.98 0 3 C-0.60328125 3.26554688 -1.2065625 3.53109375 -1.828125 3.8046875 C-3.02695313 4.33449219 -3.02695313 4.33449219 -4.25 4.875 C-5.03890625 5.22304687 -5.8278125 5.57109375 -6.640625 5.9296875 C-11.24174832 7.98270461 -11.24174832 7.98270461 -15.125 11.125 C-15.74375 11.74375 -16.3625 12.3625 -17 13 C-17.66 13 -18.32 13 -19 13 C-19 13.66 -19 14.32 -19 15 C-22.45234565 15.791911 -25.55301502 16.0925655 -29.08984375 15.9921875 C-30.51393555 15.96705078 -30.51393555 15.96705078 -31.96679688 15.94140625 C-33.94355165 15.89721844 -35.92014658 15.84516387 -37.89648438 15.78515625 C-43.50378906 15.70152188 -47.0451072 16.08909989 -52 19 C-52.66 18.67 -53.32 18.34 -54 18 C-48.15800696 12.83730848 -44.2200373 10.71508224 -36.1875 10.8125 C-34.95 10.82023438 -33.7125 10.82796875 -32.4375 10.8359375 C-29.67218263 10.96791856 -27.35554394 11.30276374 -24.6875 11.9375 C-19.73271304 12.02147944 -18.01671815 10.08276931 -14.37890625 6.92578125 C-10.58402013 3.85373058 -5.04363546 0 0 0 Z " fill="#D0D7DE" transform="translate(200,150)"/>
<path d="M0 0 C14.51003856 -0.61270796 26.62847456 4.21830055 39.03515625 11.1640625 C39.03515625 11.8240625 39.03515625 12.4840625 39.03515625 13.1640625 C39.61265625 13.4115625 40.19015625 13.6590625 40.78515625 13.9140625 C43.36455604 15.34706238 45.09637217 16.94830926 47.03515625 19.1640625 C47.03515625 19.8240625 47.03515625 20.4840625 47.03515625 21.1640625 C47.69515625 21.1640625 48.35515625 21.1640625 49.03515625 21.1640625 C51.22265625 23.9765625 51.22265625 23.9765625 53.03515625 27.1640625 C52.54015625 28.6490625 52.54015625 28.6490625 52.03515625 30.1640625 C51.54015625 28.6790625 51.54015625 28.6790625 51.03515625 27.1640625 C50.37515625 27.1640625 49.71515625 27.1640625 49.03515625 27.1640625 C47.484375 25.5546875 47.484375 25.5546875 45.72265625 23.4140625 C43.0475339 20.24644901 40.29589939 17.73313285 37.03515625 15.1640625 C37.03515625 14.5040625 37.03515625 13.8440625 37.03515625 13.1640625 C32.1496024 11.18982566 27.22008009 9.33760524 22.2890625 7.48046875 C19.03515625 6.1640625 19.03515625 6.1640625 16.4296875 4.515625 C11.10283175 2.39469049 5.83170801 2.85173715 0.16015625 2.9765625 C-1.00515625 2.99009766 -2.17046875 3.00363281 -3.37109375 3.01757812 C-6.23615493 3.05280429 -9.10025752 3.10206535 -11.96484375 3.1640625 C-8.71161631 -0.08916494 -4.38390764 0.36605193 0 0 Z " fill="#FCE960" transform="translate(123.96484375,63.8359375)"/>
<path d="M0 0 C0.20140476 3.62528568 -0.14223235 5.86501708 -2 9 C-2.66 9 -3.32 9 -4 9 C-4.0825 10.010625 -4.165 11.02125 -4.25 12.0625 C-4.85515462 16.4038266 -6.72634938 19.27948081 -9 23 C-9.70286303 24.65172812 -10.38655243 26.31301918 -11 28 C-11.33 28 -11.66 28 -12 28 C-11.67 25.03 -11.34 22.06 -11 19 C-10.34 19 -9.68 19 -9 19 C-9 18.01 -9 17.02 -9 16 C-8.34 16 -7.68 16 -7 16 C-6.835 14.72125 -6.67 13.4425 -6.5 12.125 C-6.36078125 11.04605469 -6.36078125 11.04605469 -6.21875 9.9453125 C-5.9627515 7.99501656 -5.9627515 7.99501656 -6 6 C-7.11375 6.45375 -8.2275 6.9075 -9.375 7.375 C-12.60735862 8.60146231 -15.72340527 9.39183609 -19.125 10 C-22.22716186 10.56273973 -24.26170812 11.13085406 -27.125 12.5625 C-30.82661814 14.41330907 -33.89100991 14.64577672 -38 15 C-36.54345589 12.08691178 -34.64612352 11.94547684 -31.625 10.875 C-30.64789063 10.52179687 -29.67078125 10.16859375 -28.6640625 9.8046875 C-26 9 -26 9 -23 9 C-23 8.34 -23 7.68 -23 7 C-22.38511719 6.86722656 -21.77023438 6.73445313 -21.13671875 6.59765625 C-20.32847656 6.42105469 -19.52023438 6.24445312 -18.6875 6.0625 C-17.88699219 5.88847656 -17.08648437 5.71445312 -16.26171875 5.53515625 C-13.854599 5.00113841 -13.854599 5.00113841 -11 4 C-11 3.34 -11 2.68 -11 2 C-9.5422647 1.664061 -8.08378894 1.33133376 -6.625 1 C-5.81289062 0.814375 -5.00078125 0.62875 -4.1640625 0.4375 C-2 0 -2 0 0 0 Z " fill="#E6B969" transform="translate(215,41)"/>
<path d="M0 0 C-0.0625 1.75 -0.0625 1.75 -1 4 C-2.60875 4.7115625 -2.60875 4.7115625 -4.25 5.4375 C-9.24705205 8.01298268 -10.27022758 12.66763131 -12.00390625 17.7265625 C-13.14308816 21.47022697 -14.15117709 25.18029692 -15 29 C-15.33 29.99 -15.66 30.98 -16 32 C-18.5625 33.1875 -18.5625 33.1875 -21 34 C-20.73387037 26.13586947 -19.71629177 19.95577629 -16 13 C-15.75121094 12.35546875 -15.50242187 11.7109375 -15.24609375 11.046875 C-13.42691946 8.05863886 -10.78774336 6.26848399 -8 4.25 C-7.18015625 3.63318359 -7.18015625 3.63318359 -6.34375 3.00390625 C-2.27200997 0 -2.27200997 0 0 0 Z " fill="#B8C4D0" transform="translate(104,155)"/>
<path d="M0 0 C0.33 0 0.66 0 1 0 C1.00257813 0.556875 1.00515625 1.11375 1.0078125 1.6875 C1.30876563 7.62630844 2.84979044 10.56326708 6.6328125 15.0703125 C8.72043623 18.01684428 8.85174759 20.44194219 9 24 C9.66 24 10.32 24 11 24 C11 26.97 11 29.94 11 33 C8.625 32.8125 8.625 32.8125 6 32 C4.8125 29.6875 4.8125 29.6875 4 27 C2.80930699 24.46977736 1.56317859 22.34476788 0 20 C-1.15055013 13.24677096 -1.16503365 6.73130555 0 0 Z " fill="#ABB5BE" transform="translate(210,117)"/>
<path d="M0 0 C3.46941546 0.45822468 6.67395049 0.89131683 10 2 C10 2.66 10 3.32 10 4 C10.70125 4.12375 11.4025 4.2475 12.125 4.375 C15.17656387 5.03838345 18.05340938 5.97211955 21 7 C21 7.66 21 8.32 21 9 C22.299375 9.12375 23.59875 9.2475 24.9375 9.375 C27.15234375 9.5859375 27.15234375 9.5859375 29 10 C29.33 10.66 29.66 11.32 30 12 C22.51969639 12.71925996 16.60652292 10.4882441 10 7 C9.67 6.34 9.34 5.68 9 5 C7.35636866 4.27840576 5.68949614 3.60648579 4 3 C4.49729412 5.58592942 5.22465393 7.41186554 6.5 9.75 C8.2997972 13.64956059 8.63278319 16.740285 9 21 C9.66 21 10.32 21 11 21 C11.33 23.31 11.66 25.62 12 28 C11.34 28 10.68 28 10 28 C10 27.34 10 26.68 10 26 C9.34 26 8.68 26 8 26 C7.87882812 25.38511719 7.75765625 24.77023438 7.6328125 24.13671875 C7.46523438 23.32847656 7.29765625 22.52023438 7.125 21.6875 C6.96257813 20.88699219 6.80015625 20.08648437 6.6328125 19.26171875 C6.05521001 16.74698882 6.05521001 16.74698882 4 14 C4 12.68 4 11.36 4 10 C3.34 10 2.68 10 2 10 C1.34 6.7 0.68 3.4 0 0 Z " fill="#EDE39E" transform="translate(40,41)"/>
<path d="M0 0 C0.33 0.66 0.66 1.32 1 2 C-0.216875 2.0825 -1.43375 2.165 -2.6875 2.25 C-6.83895685 2.74788195 -8.86045329 4.20929181 -12 7 C-12.62390625 7.07089844 -13.2478125 7.14179688 -13.890625 7.21484375 C-17.28690087 8.4790131 -18.38573128 11.51184557 -20 14.5625 C-20.34740234 15.19494629 -20.69480469 15.82739258 -21.05273438 16.47900391 C-23.48143274 20.92971896 -25.80589331 25.42894439 -28 30 C-28.33 30 -28.66 30 -29 30 C-29.83018327 22.86042391 -27.31970285 16.27054983 -24 10 C-21.31994214 7.48823463 -19.48529577 6.16176526 -16 5 C-15.67 4.01 -15.34 3.02 -15 2 C-9.86308839 0.00813631 -5.47549707 -0.1921227 0 0 Z " fill="#D3DAE1" transform="translate(119,153)"/>
<path d="M0 0 C0 0.99 0 1.98 0 3 C-2.01822917 2.67447917 -4.03645833 2.34895833 -6.0546875 2.0234375 C-6.69664062 2.01570312 -7.33859375 2.00796875 -8 2 C-8.66 2.66 -9.32 3.32 -10 4 C-15.60799057 7.00759749 -19.67630544 7.2937682 -25.9375 6.6875 C-26.71673828 6.62626953 -27.49597656 6.56503906 -28.29882812 6.50195312 C-30.20053159 6.35028352 -32.1005186 6.17734191 -34 6 C-34.33 5.01 -34.66 4.02 -35 3 C-30.12427923 0.39961559 -25.35774851 0.83654327 -20 1 C-17.00742975 1.19557032 -17.00742975 1.19557032 -14.5 -0.0625 C-9.54049937 -1.39093767 -5.04087281 -0.66374482 0 0 Z " fill="#BCC7D1" transform="translate(188,210)"/>
<path d="M0 0 C0.33 0 0.66 0 1 0 C1.42499026 6.94150757 1.08252413 12.46080562 -3.6875 17.9375 C-4.3371875 18.4634375 -4.3371875 18.4634375 -5 19 C-3.02 19 -1.04 19 1 19 C1 18.34 1 17.68 1 17 C1.99 17 2.98 17 4 17 C4 16.34 4 15.68 4 15 C7.96 14.34 11.92 13.68 16 13 C16 13.66 16 14.32 16 15 C14.2675 15.37125 14.2675 15.37125 12.5 15.75 C8.59810278 16.70471953 5.3447976 18.22216003 1.859375 20.1953125 C0 21 0 21 -4 21 C-4 21.66 -4 22.32 -4 23 C-5.65 23 -7.3 23 -9 23 C-8.67 20.69 -8.34 18.38 -8 16 C-7.34 16 -6.68 16 -6 16 C-6 15.01 -6 14.02 -6 13 C-5.34 13 -4.68 13 -4 13 C-3.896875 12.34 -3.79375 11.68 -3.6875 11 C-2.80786436 7.16158991 -1.43030104 3.66903309 0 0 Z " fill="#EAC075" transform="translate(48,193)"/>
<path d="M0 0 C1.98 0.66 3.96 1.32 6 2 C6 2.99 6 3.98 6 5 C4.58398286 5.48108275 3.16715563 5.95978141 1.75 6.4375 C0.96109375 6.70433594 0.1721875 6.97117188 -0.640625 7.24609375 C-2.74821988 7.91954708 -4.84753973 8.49150595 -7 9 C-7 9.66 -7 10.32 -7 11 C-9.43572059 11.83887056 -11.87333217 12.67126529 -14.3125 13.5 C-15.00279297 13.73847656 -15.69308594 13.97695312 -16.40429688 14.22265625 C-19.38931489 15.23208263 -21.82658914 16 -25 16 C-25.33 14.35 -25.66 12.7 -26 11 C-25.34 11 -24.68 11 -24 11 C-24 11.99 -24 12.98 -24 14 C-23.01 14 -22.02 14 -21 14 C-20.67 13.01 -20.34 12.02 -20 11 C-18.28515625 10.2265625 -18.28515625 10.2265625 -16.0625 9.625 C-10.79669376 8.01905588 -5.6316305 6.01423572 -1 3 C-0.67 2.01 -0.34 1.02 0 0 Z " fill="#E9A347" transform="translate(244,125)"/>
<path d="M0 0 C1.2987424 2.5974848 0.83285381 3.7409577 0.25 6.5625 C0.09015625 7.36816406 -0.0696875 8.17382812 -0.234375 9.00390625 C-1 12 -1 12 -1.74145508 13.9230957 C-4.20579872 20.38406651 -4.35642645 26.19715575 -4.1875 33.0625 C-4.17396484 34.11888672 -4.16042969 35.17527344 -4.14648438 36.26367188 C-4.1114709 38.84299809 -4.06236675 41.42121494 -4 44 C-4.66 44 -5.32 44 -6 44 C-6.9823508 38.20888356 -7.21629514 32.55635884 -7.25 26.6875 C-7.270625 25.80126953 -7.29125 24.91503906 -7.3125 24.00195312 C-7.36501959 15.0014089 -5.50104416 7.20826476 0 0 Z " fill="#EA9E1B" transform="translate(65,96)"/>
<path d="M0 0 C8.44803708 0.99388672 14.33774499 3.44370473 20 10 C20 10.66 20 11.32 20 12 C20.66 12 21.32 12 22 12 C24.29648649 14.5614657 25 15.47967572 25 19 C24.34 19 23.68 19 23 19 C23 20.65 23 22.3 23 24 C20.764721 21.45991023 19.96735781 19.85938749 19.1875 16.5 C17.70823119 12.14004983 15.90414968 11.24280939 12 9 C11.67 8.34 11.34 7.68 11 7 C9.36153616 6.11249875 7.68906261 5.28694963 6 4.5 C1.11111111 2.22222222 1.11111111 2.22222222 0 0 Z " fill="#BBC6D0" transform="translate(223,151)"/>
<path d="M0 0 C2.25 0.25 2.25 0.25 4 1 C2.02 1.99 2.02 1.99 0 3 C0 3.66 0 4.32 0 5 C-1.6563464 6.01700264 -3.32541596 7.01331563 -5 8 C-6.76114781 9.50502886 -8.49016634 11.04835421 -10.1875 12.625 C-14.80316344 16.90158172 -14.80316344 16.90158172 -17 18 C-17.433125 19.0828125 -17.433125 19.0828125 -17.875 20.1875 C-19.18358437 23.45896092 -20.98904936 26.11763742 -23 29 C-23.80867674 26.66266335 -24.12401827 25.38955431 -23.36328125 23 C-21.28452587 19.04340984 -19.29796224 16.07809809 -16 13 C-15.690625 12.278125 -15.38125 11.55625 -15.0625 10.8125 C-14.711875 10.214375 -14.36125 9.61625 -14 9 C-11.4375 8.375 -11.4375 8.375 -9 8 C-8.67 7.34 -8.34 6.68 -8 6 C-7.401875 5.71125 -6.80375 5.4225 -6.1875 5.125 C-3.83733198 4.07664322 -3.83733198 4.07664322 -2 1.8125 C-1.34 1.214375 -0.68 0.61625 0 0 Z " fill="#E8A521" transform="translate(90,67)"/>
<path d="M0 0 C0.33 0.99 0.66 1.98 1 3 C-0.0828125 3.86625 -0.0828125 3.86625 -1.1875 4.75 C-4.61501478 8.15825908 -5.93655128 12.34567842 -7.671875 16.77734375 C-13.15267176 30.07633588 -13.15267176 30.07633588 -17 32 C-16.72445355 25.80020481 -15.82980423 22.06885854 -12 17 C-11.46375 15.906875 -10.9275 14.81375 -10.375 13.6875 C-9 11 -9 11 -7 10 C-5.99417137 8.24791141 -4.99076428 6.4941562 -4.01953125 4.72265625 C-2.90640891 2.84186334 -1.6650789 1.41531706 0 0 Z " fill="#DB9051" transform="translate(74,77)"/>
<path d="M0 0 C0.66 0 1.32 0 2 0 C2 9.9 2 19.8 2 30 C-0.475 29.01 -0.475 29.01 -3 28 C-3 27.34 -3 26.68 -3 26 C-3.99 26 -4.98 26 -6 26 C-6 25.34 -6 24.68 -6 24 C-6.99 23.67 -7.98 23.34 -9 23 C-6.69 23 -4.38 23 -2 23 C-1.05711817 18.0399662 -0.69751789 13.15485426 -0.4375 8.125 C-0.39431641 7.34125 -0.35113281 6.5575 -0.30664062 5.75 C-0.20146649 3.83349351 -0.10032075 1.91676667 0 0 Z " fill="#ED981D" transform="translate(39,114)"/>
<path d="M0 0 C1.29227198 4.19988393 0.50255809 6.86796526 -1 11 C-2.5625 12.6875 -2.5625 12.6875 -4 14 C-4.33 15.32 -4.66 16.64 -5 18 C3.25 18 11.5 18 20 18 C20 18.66 20 19.32 20 20 C11.09 20 2.18 20 -7 20 C-5.95035461 12.65248227 -5.95035461 12.65248227 -3 8 C-1.90758727 5.3604145 -0.95846173 2.69282106 0 0 Z " fill="#E5A662" transform="translate(118,25)"/>
<path d="M0 0 C0.69670416 1.78810766 1.38211189 3.58062052 2.0625 5.375 C2.44535156 6.37273438 2.82820312 7.37046875 3.22265625 8.3984375 C4 11 4 11 3 13 C2.34 12.34 1.68 11.68 1 11 C1 10.01 1 9.02 1 8 C-0.65 8.66 -2.3 9.32 -4 10 C-4.103125 11.0725 -4.20625 12.145 -4.3125 13.25 C-4.97202199 16.84739269 -5.45776191 18.45776191 -8 21 C-8.66 21 -9.32 21 -10 21 C-9.67 18.36 -9.34 15.72 -9 13 C-8.34 13 -7.68 13 -7 13 C-7 11.68 -7 10.36 -7 9 C-6.34 9 -5.68 9 -5 9 C-4.87625 7.700625 -4.7525 6.40125 -4.625 5.0625 C-4.4140625 2.84765625 -4.4140625 2.84765625 -4 1 C-2 0 -2 0 0 0 Z " fill="#E7DA72" transform="translate(129,4)"/>
<path d="M0 0 C0.66 0 1.32 0 2 0 C5 3.46153846 5 3.46153846 5 6 C5.66 6 6.32 6 7 6 C10 11.75 10 11.75 10 14 C10.66 14 11.32 14 12 14 C12.6695256 16.62430124 13.33573718 19.24936657 14 21.875 C14.19078125 22.62136719 14.3815625 23.36773437 14.578125 24.13671875 C16 29.7734375 16 29.7734375 16 32 C15.34 32 14.68 32 14 32 C14 31.34 14 30.68 14 30 C13.34 30 12.68 30 12 30 C11.90203125 29.20335938 11.8040625 28.40671875 11.703125 27.5859375 C10.80583515 21.22755598 9.83144846 17.10859794 6 12 C6 10.68 6 9.36 6 8 C5.38125 7.79375 4.7625 7.5875 4.125 7.375 C1.15346355 5.45224112 0.86975341 3.33405473 0 0 Z " fill="#ECAE23" transform="translate(180,83)"/>
<path d="M0 0 C0.66 0.33 1.32 0.66 2 1 C1.175 1.680625 0.35 2.36125 -0.5 3.0625 C-1.04914063 3.52398437 -1.59828125 3.98546875 -2.1640625 4.4609375 C-3.40029854 5.49727154 -4.6453422 6.52317866 -5.8984375 7.5390625 C-11.3859502 12.11560471 -15.69666143 17.31181045 -20 23 C-21 20 -21 20 -20.3984375 17.671875 C-18.64371789 14.31928223 -16.30390448 11.86545674 -13.625 9.25 C-13.14289063 8.75628906 -12.66078125 8.26257813 -12.1640625 7.75390625 C-9.53467056 5.14594957 -7.65792614 3.63470865 -4 3 C-3.67 2.34 -3.34 1.68 -3 1 C-2.01 0.67 -1.02 0.34 0 0 Z " fill="#CAD2DB" transform="translate(134,129)"/>
<path d="M0 0 C6.25856383 -0.38317738 10.37311133 0.24172124 16 3 C17.32276056 3.37308631 18.65232077 3.73046415 20 4 C20 4.66 20 5.32 20 6 C20.99 6 21.98 6 23 6 C23 6.66 23 7.32 23 8 C23.99 8 24.98 8 26 8 C26 8.66 26 9.32 26 10 C26.99 10.33 27.98 10.66 29 11 C26.50907189 12.24546405 25.58919267 11.7767578 23 11 C23 10.34 23 9.68 23 9 C22.45214844 8.87625 21.90429688 8.7525 21.33984375 8.625 C17.71644997 7.65714857 14.25907789 6.26351764 10.75390625 4.9375 C8.17311764 4.05893366 5.68223938 3.46732301 3 3 C3 2.34 3 1.68 3 1 C2.01 0.67 1.02 0.34 0 0 Z " fill="#EC9F42" transform="translate(10,132)"/>
<path d="M0 0 C0.33 0 0.66 0 1 0 C1.03963867 0.64437012 1.07927734 1.28874023 1.12011719 1.95263672 C1.31297909 4.92814432 1.53134418 7.9012809 1.75 10.875 C1.811875 11.88820312 1.87375 12.90140625 1.9375 13.9453125 C2.41167242 20.10955393 3.52218783 25.20571173 6.046875 30.86035156 C7.9923082 35.22760991 9 39.18112923 9 44 C9.66 44 10.32 44 11 44 C11 44.99 11 45.98 11 47 C8 46 8 46 6.87109375 44.23828125 C5.95116844 41.87452698 5.4759816 39.68807921 5.0625 37.1875 C4.23571234 32.73203315 2.888378 29.10516956 1 25 C0.05326217 21.94478081 -0.11711799 19.20734983 -0.09765625 16.015625 C-0.09443359 15.08105469 -0.09121094 14.14648438 -0.08789062 13.18359375 C-0.07951172 12.21550781 -0.07113281 11.24742187 -0.0625 10.25 C-0.05798828 9.26644531 -0.05347656 8.28289062 -0.04882812 7.26953125 C-0.03706483 4.84629209 -0.02062684 2.42317727 0 0 Z " fill="#E48616" transform="translate(57,117)"/>
<path d="M0 0 C0.33 0 0.66 0 1 0 C1 1.98 1 3.96 1 6 C1.63808594 6.04898438 2.27617187 6.09796875 2.93359375 6.1484375 C3.75988281 6.22320312 4.58617187 6.29796875 5.4375 6.375 C6.26121094 6.44460937 7.08492187 6.51421875 7.93359375 6.5859375 C8.61550781 6.72257813 9.29742187 6.85921875 10 7 C10.33 7.66 10.66 8.32 11 9 C8.36 8.67 5.72 8.34 3 8 C6.63 9.98 10.26 11.96 14 14 C9.94398689 15.35200437 7.9503364 14.52469124 4 13 C3.4121875 12.16210938 2.824375 11.32421875 2.21875 10.4609375 C0.16038978 7.68601671 0.16038978 7.68601671 -3.34765625 7.328125 C-4.57355469 7.30234375 -5.79945313 7.2765625 -7.0625 7.25 C-13.84810127 7.05063291 -13.84810127 7.05063291 -17 6 C-17 5.34 -17 4.68 -17 4 C-13.535 3.505 -13.535 3.505 -10 3 C-10.33 3.66 -10.66 4.32 -11 5 C-7.37 5.33 -3.74 5.66 0 6 C0 4.02 0 2.04 0 0 Z " fill="#D0D7DF" transform="translate(221,144)"/>
<path d="M0 0 C0.99 0.495 0.99 0.495 2 1 C2 1.66 2 2.32 2 3 C3.65 3.33 5.3 3.66 7 4 C6.814375 5.010625 6.62875 6.02125 6.4375 7.0625 C5.85709156 12.28617596 6.58955701 16.9627036 8 22 C2.7454899 16.88376648 0.78186261 14.20383749 0.375 6.8125 C0.30023438 5.54019531 0.22546875 4.26789063 0.1484375 2.95703125 C0.09945312 1.98121094 0.05046875 1.00539063 0 0 Z " fill="#EB9921" transform="translate(210,112)"/>
<path d="M0 0 C5.04400688 0.64391577 7.88145194 4.26873972 11 8 C12.4375 10.9375 12.4375 10.9375 13 13 C12.34 13.66 11.68 14.32 11 15 C0.59546314 6.53119093 0.59546314 6.53119093 -0.875 2.75 C-0.91625 2.1725 -0.9575 1.595 -1 1 C-0.67 0.67 -0.34 0.34 0 0 Z " fill="#E1872F" transform="translate(179,58)"/>
<path d="M0 0 C0 0.66 0 1.32 0 2 C-0.99 2 -1.98 2 -3 2 C-3 2.66 -3 3.32 -3 4 C-8.99835839 7.95346348 -15.01573108 9.48616831 -22 11 C-21.67 11.99 -21.34 12.98 -21 14 C-23.97 13.505 -23.97 13.505 -27 13 C-26.67 11.68 -26.34 10.36 -26 9 C-23.36 8.67 -20.72 8.34 -18 8 C-18 7.34 -18 6.68 -18 6 C-17.175 5.731875 -16.35 5.46375 -15.5 5.1875 C-0.21052632 0 -0.21052632 0 0 0 Z " fill="#EDCE60" transform="translate(30,117)"/>
<path d="M0 0 C9.9 0 19.8 0 30 0 C30.33 1.32 30.66 2.64 31 4 C29.02 4 27.04 4 25 4 C25 3.34 25 2.68 25 2 C16.75 2 8.5 2 0 2 C0 1.34 0 0.68 0 0 Z " fill="#E39021" transform="translate(113,41)"/>
<path d="M0 0 C-11.35681819 5.9022296 -22.2553039 10.89892212 -35 13 C-33.54345589 10.08691178 -31.64612352 9.94547684 -28.625 8.875 C-27.64789063 8.52179687 -26.67078125 8.16859375 -25.6640625 7.8046875 C-23 7 -23 7 -20 7 C-20 6.34 -20 5.68 -20 5 C-19.38511719 4.86722656 -18.77023438 4.73445313 -18.13671875 4.59765625 C-17.32847656 4.42105469 -16.52023438 4.24445312 -15.6875 4.0625 C-14.88699219 3.88847656 -14.08648437 3.71445312 -13.26171875 3.53515625 C-10.854599 3.00113841 -10.854599 3.00113841 -8 2 C-8 1.34 -8 0.68 -8 0 C-4.90645403 -0.99435406 -3.09720845 -0.87840996 0 0 Z " fill="#EFE0AB" transform="translate(212,43)"/>
<path d="M0 0 C0.66 0 1.32 0 2 0 C4.53459067 6.9550375 5.95150365 13.57332867 5 21 C4.34 21.99 3.68 22.98 3 24 C2.34 23.34 1.68 22.68 1 22 C1.39504441 19.0371669 2.59817629 16.61673759 4 14 C3.01 14.33 2.02 14.66 1 15 C-0.42705634 9.69276568 -1.4002792 5.46108889 0 0 Z " fill="#B3BFCA" transform="translate(248,171)"/>
<path d="M0 0 C0.66 0 1.32 0 2 0 C2.79441072 1.87383903 3.58539974 3.74912886 4.375 5.625 C4.81585938 6.66914062 5.25671875 7.71328125 5.7109375 8.7890625 C9 16.98181818 9 16.98181818 9 21 C9.66 21 10.32 21 11 21 C11.33 23.31 11.66 25.62 12 28 C11.34 28 10.68 28 10 28 C10 27.34 10 26.68 10 26 C9.34 26 8.68 26 8 26 C7.87882812 25.38511719 7.75765625 24.77023438 7.6328125 24.13671875 C7.46523438 23.32847656 7.29765625 22.52023438 7.125 21.6875 C6.96257813 20.88699219 6.80015625 20.08648437 6.6328125 19.26171875 C6.05521001 16.74698882 6.05521001 16.74698882 4 14 C4 12.68 4 11.36 4 10 C3.34 10 2.68 10 2 10 C1.34 6.7 0.68 3.4 0 0 Z " fill="#E5BB78" transform="translate(40,41)"/>
<path d="M0 0 C0 0.66 0 1.32 0 2 C0.66 2 1.32 2 2 2 C2.33 2.99 2.66 3.98 3 5 C4.32848691 6.00642948 5.66150329 7.00692179 7 8 C7 8.66 7 9.32 7 10 C7.66 10 8.32 10 9 10 C9 10.66 9 11.32 9 12 C9.99 12 10.98 12 12 12 C11.67 13.32 11.34 14.64 11 16 C10.319375 15.319375 9.63875 14.63875 8.9375 13.9375 C8.48503906 13.48890625 8.03257812 13.0403125 7.56640625 12.578125 C6.43376443 11.43700955 5.31865545 10.27840096 4.21484375 9.109375 C3.60769531 8.47515625 3.00054687 7.8409375 2.375 7.1875 C1.80523437 6.58292969 1.23546875 5.97835937 0.6484375 5.35546875 C-1.03050932 3.68243517 -1.03050932 3.68243517 -4 4 C-4.33 4.66 -4.66 5.32 -5 6 C-6.32 5.34 -7.64 4.68 -9 4 C-8.67 3.01 -8.34 2.02 -8 1 C-5.17884816 -0.07009208 -3.09455459 0 0 0 Z " fill="#F2A71D" transform="translate(183,55)"/>
<path d="M0 0 C0.66 0.66 1.32 1.32 2 2 C0.71372289 3.17260611 -0.57919783 4.3379283 -1.875 5.5 C-2.59429687 6.1496875 -3.31359375 6.799375 -4.0546875 7.46875 C-6 9 -6 9 -8 9 C-8.19335938 9.60328125 -8.38671875 10.2065625 -8.5859375 10.828125 C-8.84632812 11.62734375 -9.10671875 12.4265625 -9.375 13.25 C-9.63023438 14.03890625 -9.88546875 14.8278125 -10.1484375 15.640625 C-11 18 -11 18 -12.0625 19.96875 C-13.20155265 22.43669741 -13.41163323 24.54735425 -13.625 27.25 C-13.73714844 28.58804688 -13.73714844 28.58804688 -13.8515625 29.953125 C-13.90054688 30.62859375 -13.94953125 31.3040625 -14 32 C-14.99 31.67 -15.98 31.34 -17 31 C-16.67 27.37 -16.34 23.74 -16 20 C-15.34 20 -14.68 20 -14 20 C-13.9175 19.319375 -13.835 18.63875 -13.75 17.9375 C-12.16237306 11.71929447 -8.78785342 7.17402606 -4 3 C-3.01 2.67 -2.02 2.34 -1 2 C-0.67 1.34 -0.34 0.68 0 0 Z " fill="#DE9C33" transform="translate(98,155)"/>
<path d="M0 0 C8.40544837 0.6426701 15.45219888 1.20051901 22 7 C22.66 7.33 23.32 7.66 24 8 C23.34 9.98 22.68 11.96 22 14 C21.443125 13.278125 20.88625 12.55625 20.3125 11.8125 C19.549375 10.884375 18.78625 9.95625 18 9 C17.360625 8.13375 16.72125 7.2675 16.0625 6.375 C11.30655114 2.68671313 5.83730442 2.05122759 0 1 C0 0.67 0 0.34 0 0 Z " fill="#C0CBD6" transform="translate(186,115)"/>
<path d="M0 0 C1.32 0 2.64 0 4 0 C4 11.88 4 23.76 4 36 C2.35 36 0.7 36 -1 36 C-1 35.34 -1 34.68 -1 34 C-0.01 34 0.98 34 2 34 C2 23.44 2 12.88 2 2 C1.34 2 0.68 2 0 2 C0 1.34 0 0.68 0 0 Z " fill="#F2DBC9" transform="translate(42,110)"/>
<path d="M0 0 C0.99 0.33 1.98 0.66 3 1 C3.9140625 2.9609375 3.9140625 2.9609375 4.625 5.375 C4.86476563 6.16648438 5.10453125 6.95796875 5.3515625 7.7734375 C5.56554687 8.50820312 5.77953125 9.24296875 6 10 C6.33 10.99 6.66 11.98 7 13 C7.66 13.33 8.32 13.66 9 14 C8.67 15.65 8.34 17.3 8 19 C4.33926811 16.70819727 3.14832701 14.67570919 1.75 10.625 C1.41484375 9.68914062 1.0796875 8.75328125 0.734375 7.7890625 C0.01455194 5.05526643 -0.14309339 2.81076311 0 0 Z " fill="#D2601B" transform="translate(59,150)"/>
<path d="M0 0 C0.66 0.33 1.32 0.66 2 1 C1.690625 2.051875 1.38125 3.10375 1.0625 4.1875 C-0.48018185 9.72300545 -1.1916087 13.30675842 0 19 C-1.65 19.66 -3.3 20.32 -5 21 C-4.73510924 13.172478 -3.75854433 6.92271421 0 0 Z " fill="#B1BAC1" transform="translate(88,168)"/>
<path d="M0 0 C1.890625 0.60546875 1.890625 0.60546875 4 2 C5.046875 4.86328125 5.046875 4.86328125 5.75 8.3125 C5.99234375 9.44300781 6.2346875 10.57351562 6.484375 11.73828125 C6.93229853 14.57173692 7.10726267 17.14144998 7 20 C3.23181192 16.23181192 0.38148294 10.86801629 -0.32421875 5.5625 C-0.3125 3.375 -0.3125 3.375 0 0 Z " fill="#B7C4CF" transform="translate(210,129)"/>
<path d="M0 0 C0.91201172 0.00064453 1.82402344 0.00128906 2.76367188 0.00195312 C4.18196289 0.02612305 4.18196289 0.02612305 5.62890625 0.05078125 C6.57056641 0.04755859 7.51222656 0.04433594 8.48242188 0.04101562 C13.12076214 0.0770225 16.99912498 0.12917807 21.19140625 2.36328125 C21.19140625 2.69328125 21.19140625 3.02328125 21.19140625 3.36328125 C11.29140625 3.36328125 1.39140625 3.36328125 -8.80859375 3.36328125 C-4.30353606 -0.01551202 -4.30353606 -0.01551202 0 0 Z " fill="#FDEC88" transform="translate(120.80859375,65.63671875)"/>
<path d="M0 0 C1.98 0 3.96 0 6 0 C2.62248697 5.75428146 2.62248697 5.75428146 -0.375 6.9375 C-3.86913571 8.35179302 -5.39696959 10.60294221 -7.66796875 13.5390625 C-8.10753906 14.02117187 -8.54710937 14.50328125 -9 15 C-9.66 15 -10.32 15 -11 15 C-10.70985788 11.51829452 -10.27243676 10.25771045 -7.6875 7.8125 C-5 6 -5 6 -2.75 5 C-0.78571015 4.1304373 -0.78571015 4.1304373 -0.25 1.875 C-0.1675 1.25625 -0.085 0.6375 0 0 Z " fill="#F1AD1F" transform="translate(70,57)"/>
<path d="M0 0 C0 0.66 0 1.32 0 2 C-1.155 2.2475 -2.31 2.495 -3.5 2.75 C-6.61965765 3.5147838 -9.23659247 4.54170828 -12.0625 6.0625 C-15.75806773 8.03103014 -18.8412997 8.65344164 -23 9 C-23 7.35 -23 5.7 -23 4 C-22.34 4 -21.68 4 -21 4 C-21 4.66 -21 5.32 -21 6 C-19.02 6 -17.04 6 -15 6 C-15 5.34 -15 4.68 -15 4 C-14.01 4 -13.02 4 -12 4 C-12 3.34 -12 2.68 -12 2 C-10.37548581 1.66430703 -8.75037083 1.3315204 -7.125 1 C-6.22007813 0.814375 -5.31515625 0.62875 -4.3828125 0.4375 C-2 0 -2 0 0 0 Z " fill="#ECAB6A" transform="translate(64,206)"/>
<path d="M0 0 C0.66 0.33 1.32 0.66 2 1 C-0.06178074 2.75085334 -2.12439877 4.50070381 -4.1875 6.25 C-4.76564453 6.74113281 -5.34378906 7.23226562 -5.93945312 7.73828125 C-9.25231411 10.54579056 -12.5936212 13.30568908 -16 16 C-16 12 -16 12 -13.75 9.4375 C-7.61538462 4 -7.61538462 4 -4 4 C-3.67 3.01 -3.34 2.02 -3 1 C-2.01 0.67 -1.02 0.34 0 0 Z " fill="#FCEA69" transform="translate(98,73)"/>
<path d="M0 0 C0.66 0 1.32 0 2 0 C2 1.98 2 3.96 2 6 C-9.88 6 -21.76 6 -34 6 C-34 4.68 -34 3.36 -34 2 C-33.34 2 -32.68 2 -32 2 C-32 2.66 -32 3.32 -32 4 C-21.11 4 -10.22 4 1 4 C0.505 2.02 0.505 2.02 0 0 Z " fill="#F6E9DC" transform="translate(143,41)"/>
<path d="M0 0 C2.39086984 4.78173969 -1.02063614 12.30426861 -2.625 17.125 C-3.07717129 18.41883668 -3.53311575 19.71139947 -4 21 C-4.33 21 -4.66 21 -5 21 C-5.57650114 12.59589453 -5.59204823 6.61059987 0 0 Z " fill="#EEB221" transform="translate(65,96)"/>
<path d="M0 0 C3.36179774 1.44077046 5.59156268 3.24750021 8 6 C8 6.66 8 7.32 8 8 C8.66 8 9.32 8 10 8 C12.1875 10.8125 12.1875 10.8125 14 14 C13.67 14.99 13.34 15.98 13 17 C12.67 16.01 12.34 15.02 12 14 C11.34 14 10.68 14 10 14 C8.37890625 12.35546875 8.37890625 12.35546875 6.5625 10.1875 C4.04400115 7.18813535 4.04400115 7.18813535 1.27734375 4.42578125 C0 3 0 3 0 0 Z " fill="#FCEA55" transform="translate(163,77)"/>
<path d="M0 0 C0.66 0.33 1.32 0.66 2 1 C1.27683594 1.8353125 1.27683594 1.8353125 0.5390625 2.6875 C-3.70210944 7.81152813 -5.82299167 11.4729538 -7 18 C-7.645124 20.00705243 -8.30356015 22.01017187 -9 24 C-9.33 24 -9.66 24 -10 24 C-10.83018327 16.86042391 -8.31970285 10.27054983 -5 4 C-2.32421875 1.60546875 -2.32421875 1.60546875 0 0 Z " fill="#C6D0D9" transform="translate(100,159)"/>
<path d="M0 0 C7.59 0 15.18 0 23 0 C22.67 0.66 22.34 1.32 22 2 C15.4 1.67 8.8 1.34 2 1 C2.680625 2.753125 3.36125 4.50625 4.0625 6.3125 C6.125 11.625 6.125 11.625 5 15 C4.16013916 13.06532058 3.32831973 11.12714871 2.5 9.1875 C2.0359375 8.10855469 1.571875 7.02960938 1.09375 5.91796875 C0 3 0 3 0 0 Z " fill="#CDA863" transform="translate(116,224)"/>
<path d="M0 0 C6.625 0.75 6.625 0.75 10 3 C11.65549531 3.38499891 13.3222433 3.72793135 15 4 C15 4.66 15 5.32 15 6 C16.32 6.33 17.64 6.66 19 7 C15.30545799 8.36834889 13.52410999 7.55716488 10 6 C7.67251306 5.31320058 5.34013344 4.64238957 3 4 C3 3.34 3 2.68 3 2 C2.01 2 1.02 2 0 2 C0 1.34 0 0.68 0 0 Z " fill="#EECD6B" transform="translate(224,117)"/>
<path d="M0 0 C0.66 0.33 1.32 0.66 2 1 C1.745504 2.48206495 1.47088238 3.96068615 1.1875 5.4375 C1.03667969 6.26121094 0.88585938 7.08492187 0.73046875 7.93359375 C0.48941406 8.61550781 0.24835937 9.29742187 0 10 C-0.99 10.33 -1.98 10.66 -3 11 C-2.67 11.99 -2.34 12.98 -2 14 C-4.475 15.485 -4.475 15.485 -7 17 C-6.67 15.35 -6.34 13.7 -6 12 C-5.34 12 -4.68 12 -4 12 C-3.896875 11.319375 -3.79375 10.63875 -3.6875 9.9375 C-2.85274981 6.37084011 -1.50527246 3.33777806 0 0 Z " fill="#E6A04D" transform="translate(56,175)"/>
<path d="M0 0 C-0.0625 1.75 -0.0625 1.75 -1 4 C-2.66824957 5.01403405 -4.34505095 6.01920514 -6.078125 6.91796875 C-9.04854063 8.5903369 -11.44331746 10.75510802 -14 13 C-14.33 12.34 -14.66 11.68 -15 11 C-4.64705882 0 -4.64705882 0 0 0 Z " fill="#B9BBB6" transform="translate(104,155)"/>
<path d="M0 0 C0.33 0.99 0.66 1.98 1 3 C0.278125 3.5775 -0.44375 4.155 -1.1875 4.75 C-5.36335224 8.8423352 -6.98947494 14.63574804 -9 20 C-9.95942128 17.42969854 -10.09171193 16.26465441 -9.1796875 13.6328125 C-6.5412369 8.56129968 -3.87789689 4.21028806 0 0 Z " fill="#DC8623" transform="translate(74,77)"/>
<path d="M0 0 C0.33 0.99 0.66 1.98 1 3 C-0.57382947 4.65492374 -2.15942902 6.29866024 -3.75 7.9375 C-4.63171875 8.85402344 -5.5134375 9.77054688 -6.421875 10.71484375 C-8.80176695 12.82429343 -9.9099375 13.66067071 -13 14 C-12.04956626 12.66102417 -11.08940853 11.32894573 -10.125 10 C-9.32449219 8.88625 -9.32449219 8.88625 -8.5078125 7.75 C-8.01023437 7.1725 -7.51265625 6.595 -7 6 C-6.34 6 -5.68 6 -5 6 C-5 5.34 -5 4.68 -5 4 C-3.37373596 2.61767557 -1.7074998 1.28062485 0 0 Z " fill="#F6E2CC" transform="translate(73,63)"/>
<path d="M0 0 C0.99 0.33 1.98 0.66 3 1 C3.73046875 2.84765625 3.73046875 2.84765625 4.1875 5.0625 C4.34605469 5.79597656 4.50460938 6.52945313 4.66796875 7.28515625 C4.77753906 7.85105469 4.88710937 8.41695312 5 9 C1.40094092 8.44449305 0.00090201 7.25112752 -2.25 4.4375 C-2.77078125 3.79683594 -3.2915625 3.15617187 -3.828125 2.49609375 C-4.21484375 2.00238281 -4.6015625 1.50867188 -5 1 C-2.525 1.495 -2.525 1.495 0 2 C0 1.34 0 0.68 0 0 Z " fill="#E59D32" transform="translate(177,74)"/>
<path d="M0 0 C0.67546875 0.13535156 1.3509375 0.27070312 2.046875 0.41015625 C4.20194232 0.84059959 6.35839333 1.26413204 8.515625 1.68359375 C9.74796875 1.93238281 10.9803125 2.18117187 12.25 2.4375 C13.49265625 2.68371094 14.7353125 2.92992187 16.015625 3.18359375 C17.49289063 3.58771484 17.49289063 3.58771484 19 4 C19.33 4.66 19.66 5.32 20 6 C12.38445882 6.73226358 6.83923859 4.19164467 0 1 C0 0.67 0 0.34 0 0 Z " fill="#EFE16C" transform="translate(50,47)"/>
<path d="M0 0 C0.66 0.33 1.32 0.66 2 1 C1.40832031 1.54527344 0.81664063 2.09054688 0.20703125 2.65234375 C-5.04926725 7.66855031 -8.90338644 12.41775107 -12 19 C-13 16 -13 16 -12.4140625 13.67578125 C-10.60904326 10.26020617 -8.14345473 7.8189373 -5.375 5.1875 C-4.859375 4.68541016 -4.34375 4.18332031 -3.8125 3.66601562 C-2.54840846 2.43703773 -1.27511194 1.21753999 0 0 Z " fill="#BFC9D4" transform="translate(126,133)"/>
<path d="M0 0 C0 0.99 0 1.98 0 3 C-0.66 3 -1.32 3 -2 3 C-2.268125 3.598125 -2.53625 4.19625 -2.8125 4.8125 C-3.99308761 6.98726664 -5.26816512 8.26816512 -7 10 C-7.33 10.99 -7.66 11.98 -8 13 C-10.0625 13.6875 -10.0625 13.6875 -12 14 C-9.375 9.125 -9.375 9.125 -6 8 C-5.896875 7.236875 -5.79375 6.47375 -5.6875 5.6875 C-4.83195622 2.34310158 -3.70341243 0 0 0 Z " fill="#AAB8C5" transform="translate(248,203)"/>
<path d="M0 0 C0.66 0 1.32 0 2 0 C2.66 0.99 3.32 1.98 4 3 C7.08365871 3.2502157 7.08365871 3.2502157 10 3 C10 3.66 10 4.32 10 5 C1.57142857 7.28571429 1.57142857 7.28571429 -3 7 C-2.01 4.69 -1.02 2.38 0 0 Z " fill="#E78A2B" transform="translate(71,195)"/>
<path d="M0 0 C8.20093458 -0.63084112 8.20093458 -0.63084112 11.375 1.875 C11.91125 2.57625 12.4475 3.2775 13 4 C13.99 4.66 14.98 5.32 16 6 C11.61667943 5.17812739 7.32059823 4.09845718 3 3 C3 2.34 3 1.68 3 1 C2.01 0.67 1.02 0.34 0 0 Z " fill="#ECB982" transform="translate(10,132)"/>
<path d="M0 0 C0.99 0 1.98 0 3 0 C3 0.66 3 1.32 3 2 C3.66 1.649375 4.32 1.29875 5 0.9375 C9.11478812 -0.34837129 11.77871371 0.15574274 16 1 C16.33 1.66 16.66 2.32 17 3 C11.06 3 5.12 3 -1 3 C-0.67 2.01 -0.34 1.02 0 0 Z " fill="#F4BE21" transform="translate(115,37)"/>
<path d="M0 0 C1.29227198 4.19988393 0.50255809 6.86796526 -1 11 C-2.5 12.6875 -2.5 12.6875 -4 14 C-5.17574711 16.09989652 -5.17574711 16.09989652 -6 18 C-6.33 17.34 -6.66 16.68 -7 16 C-6.328125 14.3359375 -6.328125 14.3359375 -5.25 12.375 C-3.12400026 8.34445883 -1.53203101 4.28968683 0 0 Z " fill="#E6C467" transform="translate(118,25)"/>
<path d="M0 0 C-0.66 2.31 -1.32 4.62 -2 7 C-3.32 7 -4.64 7 -6 7 C-6.33 5.02 -6.66 3.04 -7 1 C-4.50935112 0.31292445 -2.62113708 0 0 0 Z " fill="#E29448" transform="translate(61,74)"/>
<path d="M0 0 C-2.22552258 1.15341698 -4.45495969 2.29781159 -6.6875 3.4375 C-7.62625977 3.92573242 -7.62625977 3.92573242 -8.58398438 4.42382812 C-12.03713639 6.17752313 -15.15193519 7.47760497 -19 8 C-16.45217026 5.02753198 -13.54659117 3.58464712 -10 2 C-9.34 2 -8.68 2 -8 2 C-8 1.34 -8 0.68 -8 0 C-4.90645403 -0.99435406 -3.09720845 -0.87840996 0 0 Z " fill="#ECE095" transform="translate(212,43)"/>
<path d="M0 0 C5.05255964 0.63156995 9.29593201 2.13459373 14 4 C14 4.66 14 5.32 14 6 C12.56138706 5.91253716 11.12402492 5.80434652 9.6875 5.6875 C8.88699219 5.62949219 8.08648437 5.57148437 7.26171875 5.51171875 C4.63727666 4.91793306 3.69179328 4.04219706 2 2 C1.34 3.32 0.68 4.64 0 6 C0 4.02 0 2.04 0 0 Z " fill="#E9B66B" transform="translate(209,111)"/>
<path d="M0 0 C0 0.99 0 1.98 0 3 C-0.66 3 -1.32 3 -2 3 C-2.33 3.66 -2.66 4.32 -3 5 C-3.66 5 -4.32 5 -5 5 C-7.03195005 5.76359906 -9.02649516 6.59992787 -11.02734375 7.44140625 C-13 8 -13 8 -16 7 C-4.17241379 0 -4.17241379 0 0 0 Z " fill="#EDD553" transform="translate(214,42)"/>
<path d="M0 0 C1.24546405 2.49092811 0.7767578 3.41080733 0 6 C-0.66 6 -1.32 6 -2 6 C-2.33 7.32 -2.66 8.64 -3 10 C-3.99 10 -4.98 10 -6 10 C-6.66 8.02 -7.32 6.04 -8 4 C-7.34 4 -6.68 4 -6 4 C-6 4.99 -6 5.98 -6 7 C-5.54625 6.505 -5.0925 6.01 -4.625 5.5 C-3 4 -3 4 -1 4 C-0.67 2.68 -0.34 1.36 0 0 Z " fill="#E3A66B" transform="translate(132,240)"/>
<path d="M0 0 C3.62613199 0.56959153 5.25517741 1.92374534 7.75 4.5625 C8.36359375 5.20316406 8.9771875 5.84382813 9.609375 6.50390625 C10.06828125 6.99761719 10.5271875 7.49132812 11 8 C10.67 8.66 10.34 9.32 10 10 C9.484375 9.401875 8.96875 8.80375 8.4375 8.1875 C5.43466313 5.4926464 2.75126391 4.44279381 -1 3 C-0.67 2.01 -0.34 1.02 0 0 Z " fill="#E58817" transform="translate(179,58)"/>
<path d="M0 0 C3.8063457 0.67170806 7.35206816 1.72746564 11 3 C10.67 4.32 10.34 5.64 10 7 C9.01 7 8.02 7 7 7 C7.33 6.67 7.66 6.34 8 6 C7.05125 5.7525 6.1025 5.505 5.125 5.25 C2 4 2 4 0.625 1.875 C0.41875 1.25625 0.2125 0.6375 0 0 Z " fill="#EBCB8D" transform="translate(70,53)"/>
<path d="M0 0 C0 0.33 0 0.66 0 1 C-0.95261719 1.13277344 -1.90523437 1.26554687 -2.88671875 1.40234375 C-4.76810547 1.66724609 -4.76810547 1.66724609 -6.6875 1.9375 C-8.54955078 2.19853516 -8.54955078 2.19853516 -10.44921875 2.46484375 C-13.32474548 2.89822897 -16.15644813 3.39649282 -19 4 C-19 3.01 -19 2.02 -19 1 C-12.61773055 0.17648136 -6.43255401 -0.12086218 0 0 Z " fill="#DC8D28" transform="translate(124,57)"/>
<path d="M0 0 C0.33 0.66 0.66 1.32 1 2 C0.33333333 3.33333333 -0.33333333 4.66666667 -1 6 C-1.45064632 8.58532701 -1.45064632 8.58532701 -1.625 11.25 C-1.69976562 12.14203125 -1.77453125 13.0340625 -1.8515625 13.953125 C-1.90054688 14.62859375 -1.94953125 15.3040625 -2 16 C-2.99 15.67 -3.98 15.34 -5 15 C-4.67 11.37 -4.34 7.74 -4 4 C-3.34 4 -2.68 4 -2 4 C-1.34 2.68 -0.68 1.36 0 0 Z " fill="#D0934F" transform="translate(86,171)"/>
<path d="M0 0 C3.87990465 1.12086134 6.28003781 2.03276853 9 5 C10.051875 5.495 10.051875 5.495 11.125 6 C13 7 13 7 14 10 C10.52156634 8.77784763 8.56815239 7.56815239 6 5 C4.02379014 3.95377125 2.0262871 2.94560065 0 2 C0 1.34 0 0.68 0 0 Z " fill="#ECAB25" transform="translate(158,65)"/>
<path d="M0 0 C3.96 1.98 3.96 1.98 8 4 C7.01 4.495 7.01 4.495 6 5 C5.34786708 7.02463255 5.34786708 7.02463255 5 9 C4.34 9 3.68 9 3 9 C2.01 6.03 1.02 3.06 0 0 Z " fill="#F1D140" transform="translate(42,42)"/>
<path d="M0 0 C0.66 0 1.32 0 2 0 C2.66 2.64 3.32 5.28 4 8 C4.66 8 5.32 8 6 8 C6.33 10.31 6.66 12.62 7 15 C3 10.375 3 10.375 3 7 C2.34 7 1.68 7 1 7 C0.67 4.69 0.34 2.38 0 0 Z " fill="#E8CD84" transform="translate(136,26)"/>
<path d="M0 0 C3 3 3 3 3.29296875 5.69921875 C3.25816406 6.68535156 3.22335938 7.67148438 3.1875 8.6875 C3.16042969 9.68136719 3.13335937 10.67523438 3.10546875 11.69921875 C3.07066406 12.45847656 3.03585938 13.21773437 3 14 C2.34 14 1.68 14 1 14 C0.67 9.38 0.34 4.76 0 0 Z " fill="#DE7C22" transform="translate(210,112)"/>
<path d="M0 0 C2.23465229 3.35197843 2.27108649 4.57791246 2.25 8.5 C2.25515625 9.4590625 2.2603125 10.418125 2.265625 11.40625 C2 14 2 14 0 17 C-0.66 16.34 -1.32 15.68 -2 15 C-1.46428571 11.46428571 -1.46428571 11.46428571 0 10 C0.07205511 8.31391034 0.08386068 6.62499341 0.0625 4.9375 C0.04896484 3.55884766 0.04896484 3.55884766 0.03515625 2.15234375 C0.02355469 1.44207031 0.01195312 0.73179687 0 0 Z " fill="#BFC9D2" transform="translate(251,178)"/>
<path d="M0 0 C4.3177458 0.50797009 8.03302114 1.19682779 12 3 C11.01 3.33 10.02 3.66 9 4 C9.33 4.66 9.66 5.32 10 6 C5.56909529 4.79157144 3.01887244 3.48331435 0 0 Z " fill="#C3CCD5" transform="translate(223,151)"/>
<path d="M0 0 C0.33 0 0.66 0 1 0 C1.02578125 0.59167969 1.0515625 1.18335937 1.078125 1.79296875 C1.45704414 7.0720013 2.10636661 10.10636661 6 14 C5.67 14.66 5.34 15.32 5 16 C0.68393782 13.44559585 0.68393782 13.44559585 -1 11 C-1.23849016 7.22655562 -0.71326707 3.70250451 0 0 Z " fill="#C3B09C" transform="translate(210,117)"/>
<path d="M0 0 C0.65234375 1.734375 0.65234375 1.734375 1 4 C0.00390625 6.140625 0.00390625 6.140625 -1.4375 8.25 C-1.91058594 8.95640625 -2.38367188 9.6628125 -2.87109375 10.390625 C-3.24363281 10.92171875 -3.61617188 11.4528125 -4 12 C-4.66 11.67 -5.32 11.34 -6 11 C-5.18993474 9.35296694 -4.3768779 7.70740494 -3.5625 6.0625 C-3.11003906 5.14597656 -2.65757813 4.22945313 -2.19140625 3.28515625 C-1 1 -1 1 0 0 Z " fill="#FCE441" transform="translate(81,85)"/>
<path d="M0 0 C1.98 0 3.96 0 6 0 C6 2.31 6 4.62 6 7 C4.68 6.34 3.36 5.68 2 5 C2 4.01 2 3.02 2 2 C1.34 2 0.68 2 0 2 C0 1.34 0 0.68 0 0 Z " fill="#F4BD23" transform="translate(183,55)"/>
<path d="M0 0 C1.32 0 2.64 0 4 0 C3.45276317 3.37462715 2.9451 5.08235 1 8 C0.34 8 -0.32 8 -1 8 C-0.67 5.36 -0.34 2.72 0 0 Z " fill="#ECDC6A" transform="translate(120,17)"/>
<path d="M0 0 C0 0.66 0 1.32 0 2 C-1.32 2 -2.64 2 -4 2 C-4.33 3.32 -4.66 4.64 -5 6 C-6.32 5.34 -7.64 4.68 -9 4 C-8.67 3.01 -8.34 2.02 -8 1 C-5.17884816 -0.07009208 -3.09455459 0 0 0 Z " fill="#E3A556" transform="translate(183,55)"/>
<path d="M0 0 C7.50769231 0.61538462 7.50769231 0.61538462 10 2.5625 C10.33 3.036875 10.66 3.51125 11 4 C8.36 4 5.72 4 3 4 C2.67 3.01 2.34 2.02 2 1 C1.34 0.67 0.68 0.34 0 0 Z " fill="#EDA337" transform="translate(7,128)"/>
<path d="M0 0 C1 3 1 3 0 6 C-0.66 6 -1.32 6 -2 6 C-2.33 8.31 -2.66 10.62 -3 13 C-4.32 12.67 -5.64 12.34 -7 12 C-6.67 11.34 -6.34 10.68 -6 10 C-5.67 10.33 -5.34 10.66 -5 11 C-4.80664062 10.45730469 -4.61328125 9.91460937 -4.4140625 9.35546875 C-4.15367187 8.64003906 -3.89328125 7.92460938 -3.625 7.1875 C-3.36976563 6.47980469 -3.11453125 5.77210937 -2.8515625 5.04296875 C-2 3 -2 3 0 0 Z " fill="#E5A35F" transform="translate(202,69)"/>
<path d="M0 0 C2 3 2 3 2 7 C-0.475 6.01 -0.475 6.01 -3 5 C-3 4.34 -3 3.68 -3 3 C-3.99 2.67 -4.98 2.34 -6 2 C-4.02 1.34 -2.04 0.68 0 0 Z " fill="#EC912C" transform="translate(39,137)"/>
<path d="M0 0 C1.485 0.99 1.485 0.99 3 2 C3.51171875 4.6015625 3.51171875 4.6015625 3.6875 7.625 C3.75324219 8.62789062 3.81898438 9.63078125 3.88671875 10.6640625 C3.92410156 11.43492187 3.96148437 12.20578125 4 13 C3.566875 12.1028125 3.566875 12.1028125 3.125 11.1875 C1.95257974 8.80672208 1.95257974 8.80672208 0 6 C-0.125 2.8125 -0.125 2.8125 0 0 Z " fill="#C7D0D8" transform="translate(210,131)"/>
<path d="M0 0 C0.66 0.33 1.32 0.66 2 1 C1.360625 1.556875 0.72125 2.11375 0.0625 2.6875 C-2.19680987 5.22066561 -2.63149047 6.68341424 -3 10 C-4.875 9.6875 -4.875 9.6875 -7 9 C-7.66 8.01 -8.32 7.02 -9 6 C-6.525 6.99 -6.525 6.99 -4 8 C-3.896875 7.236875 -3.79375 6.47375 -3.6875 5.6875 C-2.95635961 2.82940576 -2.23048087 1.84257115 0 0 Z " fill="#CCD4DC" transform="translate(154,123)"/>
<path d="M0 0 C2.375 0.25 2.375 0.25 5 1 C6.1875 3 6.1875 3 7 5 C7.66 5.33 8.32 5.66 9 6 C4.70042176 5.52226908 2.78280018 4.29813355 0 1 C0 0.67 0 0.34 0 0 Z " fill="#DC872B" transform="translate(170,71)"/>
<path d="M0 0 C2.57075841 3.01447835 3.52207066 5.35979771 4.1875 9.25 C4.34605469 10.14203125 4.50460938 11.0340625 4.66796875 11.953125 C4.83232422 12.96632812 4.83232422 12.96632812 5 14 C2.69649577 11.18675674 1.38367283 8.71855963 0.3125 5.25 C0.06113281 4.45078125 -0.19023438 3.6515625 -0.44921875 2.828125 C-0.63097656 2.22484375 -0.81273438 1.6215625 -1 1 C-0.67 0.67 -0.34 0.34 0 0 Z " fill="#E4A663" transform="translate(117,225)"/>
<path d="M0 0 C0.99 0.33 1.98 0.66 3 1 C4.1875 3.5625 4.1875 3.5625 5 6 C5.66 6 6.32 6 7 6 C7.33 7.65 7.66 9.3 8 11 C7.67 10.34 7.34 9.68 7 9 C6.34 9 5.68 9 5 9 C5 8.34 5 7.68 5 7 C4.34 7 3.68 7 3 7 C2.01 4.69 1.02 2.38 0 0 Z " fill="#A8B5C4" transform="translate(87,203)"/>
<path d="M0 0 C1.31625194 2.63250388 0.74813658 3.80179056 0.0625 6.625 C-0.13214844 7.44226563 -0.32679687 8.25953125 -0.52734375 9.1015625 C-0.76130859 10.04128906 -0.76130859 10.04128906 -1 11 C-1.99 11 -2.98 11 -4 11 C-4 7.80389448 -3.45328458 6.58282374 -2 3.8125 C-1.62875 3.09707031 -1.2575 2.38164063 -0.875 1.64453125 C-0.441875 0.83048828 -0.441875 0.83048828 0 0 Z " fill="#DE9A5A" transform="translate(65,88)"/>
<path d="M0 0 C0.99 0 1.98 0 3 0 C3.33 0.99 3.66 1.98 4 3 C5.32 3 6.64 3 8 3 C8 3.66 8 4.32 8 5 C6.02 5.33 4.04 5.66 2 6 C0 3 0 3 0 0 Z " fill="#EBA02C" transform="translate(52,69)"/>
<path d="M0 0 C-1.125 1.9375 -1.125 1.9375 -3 4 C-6.1875 4.75 -6.1875 4.75 -9 5 C-9 4.34 -9 3.68 -9 3 C-6.04341306 0.15291628 -4.05047276 -0.3375394 0 0 Z " fill="#B6C2CD" transform="translate(236,217)"/>
<path d="M0 0 C1.98 0.66 3.96 1.32 6 2 C6 2.99 6 3.98 6 5 C2.89448334 5 1.64738916 4.4606285 -1 3 C-0.67 2.01 -0.34 1.02 0 0 Z " fill="#E8B967" transform="translate(244,125)"/>
<path d="M0 0 C0.33 0.66 0.66 1.32 1 2 C0.34 2 -0.32 2 -1 2 C-1.20625 2.61875 -1.4125 3.2375 -1.625 3.875 C-3.54775888 6.84653645 -5.66594527 7.13024659 -9 8 C-9 7.34 -9 6.68 -9 6 C-7.03125 4.4921875 -7.03125 4.4921875 -4.5 2.875 C-3.6646875 2.33617188 -2.829375 1.79734375 -1.96875 1.2421875 C-1.3190625 0.83226563 -0.669375 0.42234375 0 0 Z " fill="#B9BEA6" transform="translate(157,117)"/>
<path d="M0 0 C1.17487036 0.75827092 2.33972592 1.53207755 3.5 2.3125 C4.47453125 2.95638672 4.47453125 2.95638672 5.46875 3.61328125 C5.9740625 4.07089844 6.479375 4.52851562 7 5 C7 5.99 7 6.98 7 8 C6.01 7.67 5.02 7.34 4 7 C3.67 6.34 3.34 5.68 3 5 C0.97536745 4.34786708 0.97536745 4.34786708 -1 4 C-0.67 2.68 -0.34 1.36 0 0 Z " fill="#E98F1A" transform="translate(192,69)"/>
<path d="M0 0 C0.33 1.98 0.66 3.96 1 6 C0.34 5.34 -0.32 4.68 -1 4 C-2.32 5.32 -3.64 6.64 -5 8 C-4.74438677 5.6568787 -4.40729228 3.32156597 -4 1 C-2 0 -2 0 0 0 Z " fill="#E2D1A4" transform="translate(129,4)"/>
<path d="M0 0 C7.71428571 4 7.71428571 4 9 8 C5.56247993 6.4722133 2.81046312 4.49818944 0 2 C0 1.34 0 0.68 0 0 Z " fill="#E3740F" transform="translate(74,173)"/>
<path d="M0 0 C0.66 0 1.32 0 2 0 C2 0.66 2 1.32 2 2 C3.32 2.33 4.64 2.66 6 3 C5.67 4.65 5.34 6.3 5 8 C2.21611025 6.29374499 1.14615794 5.52373261 0.25 2.3125 C0.1675 1.549375 0.085 0.78625 0 0 Z " fill="#D4733E" transform="translate(62,161)"/>
<path d="M0 0 C0.66 0.33 1.32 0.66 2 1 C1.2884375 1.61875 1.2884375 1.61875 0.5625 2.25 C-1.16266518 4.182185 -1.56584875 5.48192275 -2 8 C-2.99 7.67 -3.98 7.34 -5 7 C-4.1875 4.0625 -4.1875 4.0625 -3 1 C-2.01 0.67 -1.02 0.34 0 0 Z " fill="#BBC6D3" transform="translate(152,123)"/>
<path d="M0 0 C0.96706319 3.00864103 1.27677226 5.05360248 0 8 C-2.0625 9.25 -2.0625 9.25 -4 10 C-3.67 8.35 -3.34 6.7 -3 5 C-2.34 5 -1.68 5 -1 5 C-0.67 3.35 -0.34 1.7 0 0 Z " fill="#E2B16B" transform="translate(53,182)"/>
<path d="M0 0 C3.36179774 1.44077046 5.59156268 3.24750021 8 6 C8 6.66 8 7.32 8 8 C4.20645982 6.50968064 2.3521464 4.27620391 0 1 C0 0.67 0 0.34 0 0 Z " fill="#E78519" transform="translate(62,187)"/>
<path d="M0 0 C-2.64 1.98 -5.28 3.96 -8 6 C-8.66 5.67 -9.32 5.34 -10 5 C-9.34 4.01 -8.68 3.02 -8 2 C-7.34 2 -6.68 2 -6 2 C-6 1.34 -6 0.68 -6 0 C-2.25 -1.125 -2.25 -1.125 0 0 Z " fill="#B5C2D0" transform="translate(164,117)"/>
<path d="M0 0 C0.99 0.33 1.98 0.66 3 1 C3 1.66 3 2.32 3 3 C3.66 3 4.32 3 5 3 C5.33 5.64 5.66 8.28 6 11 C5.67 9.68 5.34 8.36 5 7 C4.34 7 3.68 7 3 7 C0 2.61538462 0 2.61538462 0 0 Z " fill="#D87B21" transform="translate(187,90)"/>
<path d="M0 0 C2.125 0.375 2.125 0.375 4 1 C1.53846154 4.81538462 1.53846154 4.81538462 -1.1875 5.75 C-1.785625 5.8325 -2.38375 5.915 -3 6 C-2.42655063 3.13275314 -2.1385485 2.1385485 0 0 Z " fill="#E19339" transform="translate(75,58)"/>
<path d="M0 0 C1.485 0.99 1.485 0.99 3 2 C3 3.32 3 4.64 3 6 C3.66 6 4.32 6 5 6 C5 6.99 5 7.98 5 9 C2 8 2 8 0.8125 6.1875 C0 4 0 4 0 0 Z " fill="#DF7111" transform="translate(63,155)"/>
<path d="M0 0 C1.32 0 2.64 0 4 0 C4.33 1.65 4.66 3.3 5 5 C2.03 4.505 2.03 4.505 -1 4 C-0.67 2.68 -0.34 1.36 0 0 Z " fill="#E4BF95" transform="translate(4,126)"/>
<path d="M0 0 C0.66 0 1.32 0 2 0 C2 1.98 2 3.96 2 6 C1.34 6 0.68 6 0 6 C-0.33 7.32 -0.66 8.64 -1 10 C-1.125 2.25 -1.125 2.25 0 0 Z " fill="#DA7923" transform="translate(42,112)"/>
<path d="M0 0 C0.66 0 1.32 0 2 0 C4.1875 2.8125 4.1875 2.8125 6 6 C5.67 6.99 5.34 7.98 5 9 C4.67 8.01 4.34 7.02 4 6 C3.34 6 2.68 6 2 6 C0 3 0 3 0 0 Z " fill="#FDE642" transform="translate(171,85)"/>
<path d="M0 0 C0.33 0.99 0.66 1.98 1 3 C-0.65 4.65 -2.3 6.3 -4 8 C-4.66 7.67 -5.32 7.34 -6 7 C-4.02 4.69 -2.04 2.38 0 0 Z " fill="#DE9855" transform="translate(74,77)"/>
<path d="M0 0 C0.66 0.33 1.32 0.66 2 1 C2 1.66 2 2.32 2 3 C-1.3 3.66 -4.6 4.32 -8 5 C-6.35197949 1.70395897 -3.32254422 1.22409524 0 0 Z " fill="#DD995F" transform="translate(103,58)"/>
<path d="M0 0 C-0.33 0.99 -0.66 1.98 -1 3 C-3.97 3 -6.94 3 -10 3 C-6.84916414 -0.15083586 -4.41812253 0 0 0 Z " fill="#BBC1B0" transform="translate(168,114)"/>
<path d="M0 0 C0.66 0 1.32 0 2 0 C3.6875 1.75 3.6875 1.75 5 4 C4.6875 6.25 4.6875 6.25 4 8 C1.10067643 5.60490662 0.49831724 3.68754757 0 0 Z " fill="#F0BA22" transform="translate(180,83)"/>
<path d="M0 0 C2.31 0.33 4.62 0.66 7 1 C7.33 1.99 7.66 2.98 8 4 C7.34 4.66 6.68 5.32 6 6 C3.97945196 4.35830472 1.97956942 2.69088222 0 1 C0 0.67 0 0.34 0 0 Z " fill="#E59746" transform="translate(184,67)"/>
<path d="M0 0 C0.66 0 1.32 0 2 0 C2 0.66 2 1.32 2 2 C3.32 2.33 4.64 2.66 6 3 C3 5 3 5 0 5 C0 3.35 0 1.7 0 0 Z " fill="#E5A156" transform="translate(41,210)"/>
<path d="M0 0 C2.31 0.33 4.62 0.66 7 1 C7 1.66 7 2.32 7 3 C7.99 3.33 8.98 3.66 10 4 C7.50907189 5.24546405 6.58919267 4.7767578 4 4 C4 3.34 4 2.68 4 2 C2.68 1.67 1.36 1.34 0 1 C0 0.67 0 0.34 0 0 Z " fill="#EFBB9B" transform="translate(29,139)"/>
<path d="M0 0 C1.32 0 2.64 0 4 0 C4 0.66 4 1.32 4 2 C5.32 2.33 6.64 2.66 8 3 C5.39417629 3.93065133 4.35801776 4.14917407 1.75 3.0625 C1.1725 2.711875 0.595 2.36125 0 2 C0 1.34 0 0.68 0 0 Z " fill="#EED483" transform="translate(235,121)"/>
<path d="M0 0 C0.66 0.33 1.32 0.66 2 1 C-0.64 2.98 -3.28 4.96 -6 7 C-6 6.01 -6 5.02 -6 4 C-5.34 4 -4.68 4 -4 4 C-3.67 3.01 -3.34 2.02 -3 1 C-2.01 0.67 -1.02 0.34 0 0 Z " fill="#FCEC83" transform="translate(98,73)"/>
<path d="M0 0 C0.5625 1.9375 0.5625 1.9375 1 4 C0 5 0 5 -2.5625 5.0625 C-3.7690625 5.0315625 -3.7690625 5.0315625 -5 5 C-3.35 3.35 -1.7 1.7 0 0 Z " fill="#E09B4D" transform="translate(81,71)"/>
<path d="M0 0 C2 1 2 1 2.8515625 3.06640625 C3.10679687 3.89011719 3.36203125 4.71382813 3.625 5.5625 C3.88539063 6.38878906 4.14578125 7.21507813 4.4140625 8.06640625 C4.60742188 8.70449219 4.80078125 9.34257813 5 10 C4.34 9.67 3.68 9.34 3 9 C3 8.34 3 7.68 3 7 C2.34 7 1.68 7 1 7 C0.67 4.69 0.34 2.38 0 0 Z " fill="#DE9B77" transform="translate(192,94)"/>
<path d="M0 0 C0.66 0.33 1.32 0.66 2 1 C1.67 2.32 1.34 3.64 1 5 C-0.32 5.33 -1.64 5.66 -3 6 C-1.125 1.125 -1.125 1.125 0 0 Z " fill="#DF933F" transform="translate(85,67)"/>
</svg>
